<?xml version="1.0" standalone="no"?>
<!DOCTYPE svg PUBLIC "-//W3C//DTD SVG 1.1//EN" "http://www.w3.org/Graphics/SVG/1.1/DTD/svg11.dtd" >
<svg xmlns="http://www.w3.org/2000/svg">
<metadata>Generated by IcoMoon</metadata>
<defs>
<font id="kopa" horiz-adv-x="1024">
<font-face units-per-em="1024" ascent="960" descent="-64" />
<missing-glyph horiz-adv-x="1024" />
<glyph unicode="&#x20;" horiz-adv-x="512" d="" />
<glyph unicode="&#xe900;" glyph-name="advertising-panel" d="M124.845 833.313h75.909v-770.601h-75.909v770.601zM124.845 798.79h688.551v-51.754h-688.551v51.754zM872.339 320.421c0-86.445-70.105-156.526-156.526-156.526h-330.982c-86.457 0-156.478 70.081-156.478 156.526v226.005c0 86.421 70.033 156.514 156.478 156.514h330.982c86.421 0 156.526-70.081 156.526-156.514v-226.005zM359.472 833.313h48.31v-186.329h-48.31v186.329zM718.317 833.313h48.298v-186.329h-48.298v186.329z" />
<glyph unicode="&#xe901;" glyph-name="angle-down" d="M511.133 329.236c5.96-0.759 12.21 0.843 17.063 5.166l232.459 204.812c9.007 7.935 9.874 21.675 1.939 30.681-7.935 8.995-21.662 9.862-30.657 1.939l-218.828-192.831-221.164 190.471c-9.091 7.827-22.806 6.803-30.633-2.264-7.827-9.103-6.803-22.83 2.288-30.657l234.759-202.187c3.709-3.203 8.212-4.841 12.776-5.13z" />
<glyph unicode="&#xe902;" glyph-name="angle-left" d="M388.118 448.903c-0.771-5.973 0.843-12.222 5.142-17.087l204.812-232.447c7.935-9.007 21.687-9.874 30.681-1.927 8.995 7.923 9.85 21.662 1.939 30.645l-192.819 218.84 190.447 221.164c7.839 9.115 6.815 22.83-2.264 30.657-9.115 7.827-22.83 6.803-30.657-2.288l-202.163-234.759c-3.203-3.733-4.853-8.236-5.118-12.8z" />
<glyph unicode="&#xe903;" glyph-name="angle-right" d="M635.942 447.097c0.759 5.973-0.855 12.222-5.166 17.087l-204.8 232.387c-7.935 8.995-21.675 9.862-30.681 1.939-8.995-7.935-9.874-21.675-1.951-30.681l192.831-218.756-190.471-221.164c-7.815-9.103-6.791-22.818 2.288-30.621 9.091-7.851 22.818-6.84 30.657 2.276l202.151 234.735c3.203 3.721 4.841 8.236 5.142 12.8z" />
<glyph unicode="&#xe904;" glyph-name="angle-up" d="M512.939 571.894c-5.96 0.747-12.222-0.855-17.087-5.166l-232.447-204.824c-9.007-7.935-9.874-21.662-1.939-30.669 7.935-8.995 21.675-9.874 30.669-1.939l218.828 192.819 221.152-190.483c9.103-7.827 22.818-6.803 30.645 2.276 7.827 9.103 6.803 22.83-2.276 30.657l-234.735 202.175c-3.745 3.227-8.26 4.865-12.812 5.154z" />
<glyph unicode="&#xe905;" glyph-name="area-chart" d="M0 784.497h48.286v-580.034h-48.286v580.034zM9.645 260.359h1014.343v-55.908h-1014.343v55.908zM77.33 436.561h90.214v-151.505h-90.214v151.505zM515.588 436.561h90.214v-151.505h-90.214v151.505zM215.89 504.245h96.68v-219.189h-96.68v219.189zM663.83 459.102h96.656v-174.046h-96.656v174.046zM818.514 504.245h96.68v-219.189h-96.68v219.189zM354.45 559.046h96.668v-273.99h-96.668v273.99zM866.836 688.635l-78.1 5.828 25.732-44.77-198.948-100.377-211.218 162.366-1.024-1.325-325.948-168.062v-79.786l320.048 165.027 210.339-161.716 0.181 0.229 241.912 122.064 26.455-46.119 34.366 70.358 34.318 70.466z" />
<glyph unicode="&#xe906;" glyph-name="ariport-shuttle" d="M275.736 748.866l-28.803-64.843c19.748 9.886 33.21 13.041 33.21 13.041s25.094-0.614 59.966-1.481l65.89 96.44c0 0 117.247 41.928 226.318 84.266 109.095 42.338 56.583 69.599 45.601 74.079-44.782 23.216-104.495-2.854-104.495-2.854l-213.855-88.107-281.13 13.197-58.617-28.213 196.479-42.35-106.374-36.907c0 0-38.328 20.555-71.863 31.308-20.097 3.468-31.296 4.094-37.401-2.818-6.948-14.197 43.060-43.084 43.060-43.084l80.172-49.297 151.842 47.624zM808.965 218.021c-46.070 0-83.423-40.242-83.423-89.841 0-49.55 37.352-89.793 83.423-89.793s83.447 40.242 83.447 89.793c-0.012 49.611-37.376 89.841-83.447 89.841zM289.571 218.021c-46.070 0-83.326-40.242-83.326-89.841 0-49.55 37.256-89.793 83.326-89.793s83.411 40.242 83.411 89.793c0 49.611-37.34 89.841-83.411 89.841zM1009.972 285.983c-54.788 141.089-213.229 154.19-213.229 154.19s-56.402 167.291-250.401 223.127c-39.11 0.951-266.187 6.551-266.187 6.551s-176.671-41.013-190.459-296.941c-2.408-27.659-15.184-166.93-15.184-166.93s-6.069-34.872 44.156-66.083c3.576-4.588 18.532-8.14 41.507-10.777 6.189 71.61 61.447 127.747 129.397 127.747 70.045 0 126.748-59.472 130.107-134.081 84.374 0.867 175.816 3.107 259.865 5.768 5.852 71.827 61.194 128.313 129.421 128.313 65.192 0 118.692-51.429 128.554-118.668 23.71 1.060 37.413 1.722 37.413 1.722s80.786 19.724 35.040 146.062zM372.982 427.072h-187.304c0 0 48.719 141.065 93.646 145.978 45.059 4.925 93.658 0 93.658 0v-145.978zM434.044 427.072v148.145c0 0 0 0 88.384 0 88.408 0 179.826-148.157 179.826-148.157h-268.21z" />
<glyph unicode="&#xe907;" glyph-name="arrow" d="M882.634 728.938c-30.958 0-55.98-15.606-55.98-34.86v-483.57l-567.222 546.956 498.694-1.397c19.254 0.301 34.523 24.914 34.065 54.981-0.409 29.742-15.943 53.596-34.884 53.945v0.108l-671.982-0.265 0.289-657.4c0-19.254 25.094-34.824 55.992-34.824 30.886 0 55.98 15.63 55.98 34.86l-0.205 487.002 560.346-550.328-491.903 1.565c-19.182-0.229-34.462-24.89-34.077-54.993 0.421-29.718 15.967-53.608 34.884-53.921v-0.108h672.006v657.376c0.024 19.242-25.070 34.872-56.005 34.872z" />
<glyph unicode="&#xe908;" glyph-name="arrow-circle-down" d="M1024 448.036c0 282.744-229.256 511.952-512.036 511.952-282.744 0-512-229.208-512-511.952 0-282.792 229.256-512.036 512-512.036 282.78 0 512.036 229.244 512.036 512.036zM511.338 308.705c-3.468 0.229-6.936 1.469-9.705 3.865l-177.562 152.95c-6.9 5.912-7.67 16.28-1.71 23.216 5.864 6.852 16.28 7.61 23.144 1.698l167.303-144.087 165.473 145.845c6.84 6.009 17.207 5.334 23.216-1.469 5.997-6.803 5.334-17.207-1.421-23.216l-175.852-154.888c-3.685-3.239-8.441-4.491-12.884-3.913z" />
<glyph unicode="&#xe909;" glyph-name="arrow-circle-left" d="M511.976-63.988c282.78 0 512.012 229.232 512.012 511.976s-229.232 512.012-512.012 512.012c-282.732 0-511.976-229.28-511.976-512.012s229.244-511.976 511.976-511.976zM418.294 448.698c0.205 3.432 1.421 6.852 3.841 9.645l152.902 177.526c5.948 6.936 16.304 7.694 23.192 1.782 6.84-5.912 7.646-16.316 1.722-23.216l-144.051-167.255 145.869-165.521c5.973-6.84 5.334-17.171-1.505-23.168-6.791-5.997-17.171-5.383-23.168 1.481l-154.925 175.78c-3.251 3.649-4.479 8.405-3.877 12.944z" />
<glyph unicode="&#xe90a;" glyph-name="arrow-circle-o-down" d="M1024 448.012c0 282.756-229.232 511.988-511.988 511.988-282.78 0-512.012-229.232-512.012-511.988 0-282.744 229.232-512 512.012-512 282.756 0 511.988 229.256 511.988 512zM83.591 448.012c0 236.613 191.807 428.421 428.421 428.421 236.589 0 428.421-191.795 428.421-428.421 0-236.601-191.831-428.421-428.409-428.421-236.625 0-428.433 191.819-428.433 428.421zM685.143 493.938c6.551 5.515 7.393 15.317 1.866 21.843l-17.918 21.325c-5.515 6.575-15.305 7.381-21.855 1.89l-135.032-113.611-135.514 113.418c-6.599 5.515-16.376 4.624-21.867-1.951l-17.869-21.349c-5.515-6.575-4.624-16.364 1.915-21.855l163.113-136.513c1.011-0.867 2.155-1.505 3.299-2.071 0.12-0.048 0.265-0.096 0.361-0.144 0.698-0.277 1.325-0.59 1.999-0.771 4.901-1.577 10.464-0.71 14.727 2.842l162.776 136.947z" />
<glyph unicode="&#xe90b;" glyph-name="arrow-circle-o-left" d="M511.988-63.988c282.78 0 512.012 229.208 512.012 511.976 0 282.78-229.232 512.012-512.012 512.012-282.756 0-511.988-229.232-511.988-512.012 0-282.768 229.232-511.976 511.988-511.976zM511.988 876.409c236.613 0 428.421-191.807 428.421-428.421 0-236.577-191.807-428.421-428.421-428.421-236.589 0-428.421 191.843-428.421 428.421 0 236.613 191.831 428.421 428.421 428.421zM557.938 274.869c5.515-6.587 15.305-7.43 21.831-1.878l21.325 17.894c6.551 5.527 7.381 15.329 1.89 21.891l-113.611 135.020 113.418 135.514c5.479 6.575 4.624 16.376-1.975 21.867l-21.325 17.869c-6.599 5.491-16.376 4.6-21.867-1.951l-136.513-163.077c-0.855-1.036-1.505-2.179-2.047-3.323-0.048-0.096-0.096-0.253-0.144-0.337-0.313-0.674-0.59-1.325-0.783-1.999-1.577-4.925-0.698-10.488 2.854-14.727l136.947-162.763z" />
<glyph unicode="&#xe90c;" glyph-name="arrow-circle-o-right" d="M512 960c-282.744 0-511.976-229.22-511.976-512s229.22-512 511.964-512c282.78 0 512.012 229.22 512.012 512s-229.22 512-512 512zM512 19.591c-236.577 0-428.373 191.807-428.373 428.409 0 236.577 191.795 428.385 428.373 428.385 236.589 0 428.409-191.795 428.409-428.385 0-236.601-191.819-428.409-428.409-428.409zM466.086 621.131c-5.515 6.551-15.317 7.393-21.867 1.878l-21.301-17.906c-6.575-5.515-7.405-15.329-1.89-21.855l113.611-135.068-113.406-135.49c-5.515-6.575-4.624-16.376 1.951-21.891l21.337-17.845c6.575-5.515 16.376-4.624 21.867 1.951l136.489 163.101c0.879 1.011 1.517 2.119 2.059 3.263 0.060 0.132 0.108 0.265 0.157 0.373 0.289 0.662 0.59 1.3 0.783 1.987 1.577 4.925 0.698 10.488-2.854 14.727l-136.935 162.776z" />
<glyph unicode="&#xe90d;" glyph-name="arrow-circle-o-up" d="M0 447.988c0-282.744 229.232-511.988 512.012-511.988s511.988 229.244 511.988 511.988c0 282.756-229.208 512.012-511.988 512.012s-512.012-229.256-512.012-512.012zM940.433 447.988c0-236.577-191.831-428.421-428.421-428.421s-428.421 191.843-428.421 428.421c0 236.613 191.831 428.421 428.421 428.421s428.421-191.807 428.421-428.421zM338.845 402.098c-6.551-5.539-7.381-15.329-1.878-21.867l17.93-21.313c5.515-6.587 15.305-7.381 21.867-1.903l135.044 113.635 135.502-113.406c6.599-5.539 16.4-4.648 21.855 1.915l17.881 21.349c5.515 6.599 4.624 16.364-1.927 21.855l-163.125 136.561c-0.999 0.831-2.143 1.481-3.287 2.047-0.108 0.024-0.253 0.072-0.373 0.144-0.65 0.265-1.313 0.59-1.999 0.783-4.925 1.541-10.476 0.686-14.727-2.878l-162.763-136.923z" />
<glyph unicode="&#xe90e;" glyph-name="arrow-circle-right" d="M512.012 959.952c-282.768 0-512.012-229.208-512.012-511.976 0-282.792 229.244-511.976 512.012-511.976 282.732 0 511.988 229.184 511.988 511.976 0 282.768-229.244 511.976-511.988 511.976zM605.718 447.302c-0.229-3.468-1.421-6.84-3.865-9.693l-152.926-177.562c-5.864-6.852-16.28-7.61-23.168-1.698s-7.646 16.28-1.734 23.168l144.075 167.303-145.869 165.473c-6.009 6.803-5.334 17.207 1.517 23.216 6.755 6.009 17.171 5.334 23.119-1.469l154.937-175.78c3.287-3.745 4.503-8.417 3.913-12.957z" />
<glyph unicode="&#xe90f;" glyph-name="arrow-circle-up" d="M0 447.976c0-282.744 229.292-511.976 512.024-511.976 282.72 0 511.976 229.232 511.976 511.976 0 282.78-229.244 512.012-511.976 512.012s-512.024-229.244-512.024-512.012zM512.71 541.718c3.42-0.229 6.84-1.469 9.645-3.913l177.55-152.878c6.888-5.924 7.67-16.28 1.758-23.216-5.948-6.84-16.316-7.658-23.192-1.698l-167.267 144.039-165.497-145.833c-6.827-5.997-17.207-5.322-23.216 1.481-6.009 6.791-5.334 17.207 1.469 23.216l175.78 154.876c3.697 3.251 8.405 4.455 12.969 3.925z" />
<glyph unicode="&#xe910;" glyph-name="bath" d="M989.706 541.634h-858.25v272.689h153.961v-50.309c-24.179-4.576-42.41-25.022-42.41-49.538h105.338c0 26.009-20.567 47.202-46.949 49.984v65.83h-185.726v-1.662h-0.181v-286.983h-81.159c-18.989 0-34.318-19.953-34.318-44.601 0-24.673 15.329-44.686 34.318-44.686h24.42v-159.464h1.252c6.153-71.634 52.368-127.542 109.023-127.542h54.608l-10.283-40.315c-3.444-13.294 3.516-26.503 15.473-29.562 11.945-3.083 24.36 5.226 27.719 18.532l13.089 51.344h509.568l10.187-50.538c2.685-13.474 14.63-22.409 26.744-19.965 12.126 2.42 19.664 15.293 16.966 28.743l-8.309 41.772h30.152c56.715 0 102.833 55.908 108.999 127.542h1.252v159.44h24.528c18.905 0 34.294 20.013 34.294 44.686-0.012 24.649-15.389 44.601-34.306 44.601zM262.153 677.545v23.481c0 0.217-1.878 0.446-4.178 0.446-2.324 0-4.19-0.229-4.19-0.446v-23.481c0-0.217 1.854-0.446 4.19-0.446 2.3 0 4.178 0.229 4.178 0.446zM289.054 677.545v23.481c0 0.217-1.854 0.446-4.19 0.446-2.3 0-4.19-0.229-4.19-0.446v-23.481c0-0.217 1.89-0.446 4.19-0.446 2.336 0 4.19 0.229 4.19 0.446zM313.582 677.545v23.481c0 0.217-1.854 0.446-4.19 0.446s-4.19-0.229-4.19-0.446v-23.481c0-0.217 1.854-0.446 4.19-0.446s4.19 0.229 4.19 0.446zM263.357 644.058v23.481c0 0.229-1.878 0.446-4.19 0.446-2.324 0-4.19-0.229-4.19-0.446v-23.481c0-0.229 1.854-0.446 4.19-0.446 2.3 0.012 4.19 0.229 4.19 0.446zM290.27 644.058v23.481c0 0.229-1.878 0.446-4.19 0.446-2.324 0-4.19-0.229-4.19-0.446v-23.481c0-0.229 1.854-0.446 4.19-0.446 2.312 0.012 4.19 0.229 4.19 0.446zM314.774 644.058v23.481c0 0.229-1.854 0.446-4.19 0.446-2.3 0-4.19-0.229-4.19-0.446v-23.481c0-0.229 1.89-0.446 4.19-0.446 2.336 0.012 4.19 0.229 4.19 0.446zM264.549 607.44v23.396c0 0.277-1.854 0.47-4.19 0.47s-4.19-0.193-4.19-0.47v-23.396c0-0.301 1.854-0.506 4.19-0.506s4.19 0.205 4.19 0.506zM291.462 607.44v23.396c0 0.277-1.89 0.47-4.19 0.47-2.324 0-4.19-0.193-4.19-0.47v-23.396c0-0.301 1.854-0.506 4.19-0.506 2.3 0.012 4.19 0.205 4.19 0.506zM315.966 607.44v23.396c0 0.277-1.854 0.47-4.19 0.47-2.3 0-4.19-0.193-4.19-0.47v-23.396c0-0.301 1.878-0.506 4.19-0.506 2.336 0.012 4.19 0.205 4.19 0.506zM335.919 678.376v23.421c0 0.253-1.854 0.47-4.19 0.47-2.3 0-4.19-0.229-4.19-0.47v-23.421c0-0.277 1.89-0.47 4.19-0.47 2.336 0 4.19 0.193 4.19 0.47zM337.123 644.865v23.445c0 0.253-1.854 0.47-4.19 0.47-2.3 0-4.19-0.217-4.19-0.47v-23.445c0-0.253 1.89-0.446 4.19-0.446 2.324 0 4.19 0.193 4.19 0.446zM338.339 608.223v23.421c0 0.277-1.878 0.446-4.214 0.446-2.3 0-4.154-0.169-4.154-0.446v-23.421c0-0.277 1.854-0.506 4.154-0.506 2.324 0 4.214 0.229 4.214 0.506z" />
<glyph unicode="&#xe911;" glyph-name="bath-lite" d="M991.645 642.757h-28.875c0.012 0.169 0.048 0.325 0.048 0.494v24.926c0 11.572-8.2 20.952-18.315 20.952s-18.315-9.38-18.315-20.952v-24.926c0-0.169 0.036-0.325 0.048-0.494h-22.096c0 34.824 0 144.713 0 169.964 0 30.103-15.268 80.063-82.447 81.34-65.951-3.203-76.944-60.845-76.944-60.845s0 0-1.83-55.728c16.485-30.103 33.595-1.276 33.595-1.276s0 0 3.046 44.83c10.38 40.363 43.963 35.871 43.963 35.871 45.191 0.638 47.636-43.566 47.636-43.566v-170.59h-25.624c0.012 0.169 0.048 0.325 0.048 0.494v24.926c0 11.572-8.212 20.952-18.315 20.952-10.127 0-18.315-9.38-18.315-20.952v-24.926c0-0.169 0.036-0.325 0.048-0.494h-767.374c-17.833 0-32.355-14.51-32.355-32.355v-47.708c0-17.833 14.51-32.343 32.355-32.343h34.378v-263.634c0-17.821 14.365-32.343 32.018-32.343h123.509c-3.925-21.566 2.89-40.724 18.098-46.841 3.143-1.252 6.49-1.89 9.946-1.89 16.581 0 33.68 14.835 42.542 36.907 1.553 3.865 2.77 7.815 3.649 11.813h449.782c1.746-6.418 4.479-12.8 8.14-18.833 14.727-24.348 40.688-36.172 57.498-25.997 13.246 8.056 17.303 25.684 11.692 44.842h101.906c17.653 0 32.018 14.51 32.018 32.343v263.634h24.841c17.821 0 32.343 14.51 32.343 32.343v47.708c0 17.845-14.522 32.355-32.343 32.355zM999.905 562.694c0-4.552-3.709-8.26-8.26-8.26h-48.924v-287.717c0-4.552-3.564-8.26-7.935-8.26h-139.897l8.754-17.436 0.903-1.565c8.441-14.341 7.514-27.298 4.178-29.321-0.169-0.108-0.662-0.397-1.806-0.397-5.611 0-15.437 6.394-22.614 18.267-3.781 6.274-6.189 13.185-6.743 19.471l-0.975 10.982h-492.649l-0.65-11.355c-0.289-5.274-1.481-10.512-3.516-15.57-5.708-14.221-15.389-21.807-20.193-21.807l-0.999 0.169c-3.709 1.493-6.755 14.426-0.373 30.296l7.827 18.279h-158.007c-4.371 0-7.935 3.709-7.935 8.26v287.705h-58.461c-4.552 0-8.272 3.709-8.272 8.26v47.708c0 4.552 3.709 8.272 8.272 8.272h950.018c4.552 0 8.26-3.709 8.26-8.272v-47.708z" />
<glyph unicode="&#xe912;" glyph-name="bed" d="M895.651 383.362h68.672v-167.929h-68.672v167.929zM933.665 630.114h-450.745c-49.912 0-90.335-28.634-90.335-63.904v-63.904h631.414v63.904c0 35.269-40.447 63.904-90.335 63.904zM985.142 478.212h-910.534v88.3c-20.23 32.656-37.822 67.348-41.856 87.806h-32.753v-438.885h74.608v191.133h910.534v71.646zM289.535 489.278c-18.676-4.287-134.478 107.867-128.71 133.467 5.828 25.624 67.986 85.578 91.358 88.107 23.288 2.517 125.483-107.373 128.674-133.467 3.263-26.046-72.586-83.748-91.322-88.107zM146.158 625.791c3.456 15.184 24.384 40.965 47.347 62.567-14.751 21.422-28.646 37.232-36.582 38.207-23.336 2.818-97.511-41.446-108.987-65.048-11.451-23.613 75.801-159.187 94.995-159.211 11.102-0.024 44.866 13.017 71.911 29.056-36.991 36.208-72.152 79.052-68.684 94.429z" />
<glyph unicode="&#xe913;" glyph-name="bed-lite" d="M958.687 320.71h-887.33c-17.207 0-31.199 14.016-31.199 31.259v53.572c0 17.255 13.992 31.284 31.199 31.284h887.318c17.195 0 31.175-14.028 31.175-31.284v-53.572c0.012-17.243-13.98-31.259-31.163-31.259zM71.357 418.751c-7.249 0-13.137-5.924-13.137-13.221v-53.572c0-7.273 5.888-13.197 13.137-13.197h887.318c7.237 0 13.113 5.912 13.113 13.197v53.572c0 7.285-5.876 13.221-13.113 13.221h-887.318zM927.428 127.88h-824.823c-17.195 0-31.187 13.462-31.187 30.019v150.529c0 16.557 13.992 30.019 31.187 30.019h824.823c17.195 0 31.175-13.462 31.175-30.019v-150.529c0-16.557-13.98-30.019-31.175-30.019zM102.605 320.385c-7.237 0-13.125-5.358-13.125-11.957v-150.529c0-6.599 5.888-11.957 13.125-11.957h824.823c7.237 0 13.113 5.358 13.113 11.957v150.529c0 6.599-5.876 11.957-13.113 11.957h-824.823zM206.402 116.187c0-15.163-12.243-27.454-27.346-27.454s-27.346 12.292-27.346 27.454c0 15.163 12.243 27.454 27.346 27.454s27.346-12.292 27.346-27.454zM862.694 116.187c0-15.163-12.243-27.454-27.346-27.454s-27.346 12.292-27.346 27.454c0 15.163 12.243 27.454 27.346 27.454s27.346-12.292 27.346-27.454zM893.255 419.354h-756.464c-17.496 0-31.199 10.259-31.199 23.312v218.274c0 13.065 13.703 23.312 31.199 23.312h120.595c53.644 53.343 155.033 86.349 265.97 86.349s212.338-33.005 265.97-86.349h103.929c17.484 0 31.175-10.235 31.175-23.312v-218.274c0-13.053-13.691-23.312-31.175-23.312zM136.79 666.19c-8.477 0-13.137-3.938-13.137-5.25v-218.274c0-1.3 4.66-5.25 13.137-5.25h756.464c8.465 0 13.113 3.95 13.113 5.25v218.274c0 1.3-4.648 5.25-13.113 5.25h-111.563l-2.661 2.77c-49.586 51.549-147.567 83.579-255.675 83.579s-206.088-32.030-255.687-83.579l-2.661-2.77h-128.217zM344.119 424.579c-78.751 0-142.811 44.975-142.811 100.269 0 55.306 64.060 100.293 142.811 100.293 78.775 0 142.847-44.987 142.847-100.293 0-55.294-64.084-100.269-142.847-100.269zM344.119 607.079c-68.792 0-124.749-36.883-124.749-82.231 0-45.336 55.956-82.207 124.749-82.207 68.805 0 124.785 36.883 124.785 82.207 0 45.336-55.98 82.231-124.785 82.231zM685.902 424.579c-78.763 0-142.847 44.975-142.847 100.269 0 55.306 64.084 100.293 142.847 100.293 78.751 0 142.811-44.987 142.811-100.293 0.012-55.294-64.060-100.269-142.811-100.269zM685.902 607.079c-68.805 0-124.785-36.883-124.785-82.231 0-45.336 55.98-82.207 124.785-82.207 68.792 0 124.749 36.883 124.749 82.207 0.012 45.336-55.956 82.231-124.749 82.231z" />
<glyph unicode="&#xe914;" glyph-name="building" d="M657.135 616.832v-611.004h315.665v611.004h-315.665zM901.419 74.56h-152.721v81.484h152.721v-81.484zM901.419 196.768h-152.721v81.496h152.721v-81.496zM901.419 313.871h-152.721v81.46h152.721v-81.46zM901.419 436.103h-152.721v81.424h152.721v-81.424zM417.776 886.969h-234.205v-0.265h-132.371v-880.864h560.093v880.864h-193.517v0.265zM290.499 173.878h-152.757v81.484h152.757v-81.484zM290.499 296.038h-152.757v81.52h152.757v-81.52zM290.499 418.246h-152.757v81.508h152.757v-81.508zM290.499 535.372h-152.757v81.46h152.757v-81.46zM290.499 657.568h-152.757v81.46h152.757v-81.46zM519.55 173.878h-152.757v81.484h152.745l0.012-81.484zM519.55 296.038h-152.757v81.52h152.745l0.012-81.52zM519.55 418.246h-152.757v81.508h152.745l0.012-81.508zM519.55 535.372h-152.757v81.46h152.745l0.012-81.46zM519.55 739.028v-81.46h-152.757v81.46h152.757z" />
<glyph unicode="&#xe915;" glyph-name="calendar-0" d="M287.645 874.675h63.121v-185.233h-63.121v185.233zM490.687 874.675h63.121v-185.233h-63.121v185.233zM686.167 874.675h63.169v-185.233h-63.169v185.233zM768.867 792.564v-128.951h-102.268v128.951h-93.2v-128.951h-102.292v128.951h-100.774v-128.951h-102.256v128.951h-156.671v-771.227h814.119v771.227h-156.659zM862.922 273.93v-193.264h-688.876v193.264h-0.602v274.158h689.466v-17.556h0.012v-256.602zM381.351 303.142c0-26.621-21.581-48.202-48.202-48.202s-48.202 21.581-48.202 48.202c0 26.621 21.581 48.202 48.202 48.202s48.202-21.581 48.202-48.202zM381.339 189.098c0-26.614-21.575-48.19-48.19-48.19s-48.19 21.575-48.19 48.19c0 26.614 21.575 48.19 48.19 48.19s48.19-21.575 48.19-48.19zM381.339 419.209c0-26.614-21.575-48.19-48.19-48.19s-48.19 21.575-48.19 48.19c0 26.614 21.575 48.19 48.19 48.19s48.19-21.575 48.19-48.19zM509.724 303.142c0-26.621-21.581-48.202-48.202-48.202s-48.202 21.581-48.202 48.202c0 26.621 21.581 48.202 48.202 48.202s48.202-21.581 48.202-48.202zM509.712 189.098c0-26.614-21.575-48.19-48.19-48.19s-48.19 21.575-48.19 48.19c0 26.614 21.575 48.19 48.19 48.19s48.19-21.575 48.19-48.19zM509.712 419.209c0-26.614-21.575-48.19-48.19-48.19s-48.19 21.575-48.19 48.19c0 26.614 21.575 48.19 48.19 48.19s48.19-21.575 48.19-48.19zM638.146 303.142c0-26.621-21.581-48.202-48.202-48.202s-48.202 21.581-48.202 48.202c0 26.621 21.581 48.202 48.202 48.202s48.202-21.581 48.202-48.202zM638.134 189.098c0-26.614-21.575-48.19-48.19-48.19s-48.19 21.575-48.19 48.19c0 26.614 21.575 48.19 48.19 48.19s48.19-21.575 48.19-48.19zM638.134 419.209c0-26.614-21.575-48.19-48.19-48.19s-48.19 21.575-48.19 48.19c0 26.614 21.575 48.19 48.19 48.19s48.19-21.575 48.19-48.19zM766.531 303.142c0-26.621-21.581-48.202-48.202-48.202s-48.202 21.581-48.202 48.202c0 26.621 21.581 48.202 48.202 48.202s48.202-21.581 48.202-48.202zM766.519 189.098c0-26.614-21.575-48.19-48.19-48.19s-48.19 21.575-48.19 48.19c0 26.614 21.575 48.19 48.19 48.19s48.19-21.575 48.19-48.19zM766.519 419.209c0-26.614-21.575-48.19-48.19-48.19s-48.19 21.575-48.19 48.19c0 26.614 21.575 48.19 48.19 48.19s48.19-21.575 48.19-48.19z" />
<glyph unicode="&#xe916;" glyph-name="calendar-1" d="M637.688 727.228h0.987c18.76 0 33.969 15.208 33.969 33.957v36.931c0 18.773-15.22 33.981-33.969 33.981h-0.987c-18.748 0-33.957-15.22-33.957-33.981v-36.943c-0.012-18.748 15.208-33.945 33.957-33.945zM385.325 727.228h0.987c18.748 0 33.969 15.22 33.969 33.957v36.931c0 18.773-15.22 33.981-33.969 33.981h-0.987c-18.76 0-33.981-15.22-33.981-33.981v-36.943c0-18.748 15.22-33.945 33.981-33.945zM910.775 787.037h-220.839v-35.137c0-28.153-22.855-51.007-51.019-51.007h-1.469c-28.177 0-51.031 22.83-51.031 51.007v35.137h-148.844v-35.137c0-28.153-22.855-51.007-51.031-51.007h-1.457c-28.177 0-51.031 22.83-51.031 51.007v35.137h-220.863c-15.377 0-27.852-12.499-27.852-27.876v-650.018c0-15.413 12.475-27.888 27.876-27.888h797.562c15.401 0 27.876 12.475 27.876 27.888v650.006c0.012 15.389-12.463 27.888-27.876 27.888zM335.57 236.951h-137.717v105.748h137.717v-105.748zM336.388 364.842h-137.717v105.748h137.717v-105.748zM522.476 600.119h137.717v-105.748h-137.717v105.748zM360.158 600.119h137.717v-105.748h-137.717v105.748zM497.875 236.951v0h-137.717v105.748h137.717v-105.748zM498.694 364.842h-137.705v105.748h137.717v-105.748zM660.193 236.951h-137.729v105.748h137.729v-105.748zM661.012 364.842h-137.717v105.748h137.717v-105.748zM683.156 600.119h137.729v-105.748h-137.729v105.748zM820.85 236.951h-137.693v105.748h137.705v-105.748h-0.012zM821.705 364.842h-137.729v105.748h137.729v-105.748z" />
<glyph unicode="&#xe917;" glyph-name="check-0" d="M1007.78 775.454c-10.717-14.992-21.687-29.73-32.981-44.035-11.439-14.197-22.445-28.851-34.258-42.651-23.336-27.864-46.697-55.679-70.852-82.616-48.334-53.885-98.089-106.133-149.301-156.767-102.508-101.22-209.255-197.671-320.71-288.873l-47.515-38.882-30.585 46.853c-15.606 23.902-30.886 48.021-45.432 72.706-14.763 24.48-28.923 49.454-42.518 74.825-13.691 25.311-26.696 51.128-39.014 77.462-12.138 26.443-23.818 53.247-33.788 81.303 23.914-17.725 46.155-36.702 67.913-56.029 21.602-19.435 42.518-39.387 62.724-59.882 20.326-20.398 40.086-41.194 59.208-62.471 19.326-21.121 37.979-42.771 56.281-64.65l-78.113 8.008c103.062 100.594 210.821 195.901 322.866 286.465 56.041 45.264 113.502 88.89 172.421 130.902 29.465 21.012 59.725 41.145 90.021 61.218 15.028 10.187 30.838 19.483 46.191 29.273 15.485 9.621 31.332 18.869 47.443 27.84z" />
<glyph unicode="&#xe918;" glyph-name="check-1" d="M1024 832.626c-9.898-13.872-20.037-27.515-30.489-40.712-10.596-13.137-20.759-26.696-31.681-39.436-21.578-25.769-43.205-51.501-65.541-76.415-44.662-49.827-90.708-98.161-138.079-144.99-94.814-93.61-193.493-182.849-296.628-267.174l-43.963-35.956-28.285 43.361c-14.438 22.096-28.562 44.409-42.012 67.215-13.679 22.674-26.768 45.781-39.315 69.214-12.668 23.408-24.709 47.299-36.076 71.658-11.259 24.444-22.060 49.249-31.259 75.198 22.108-16.388 42.675-33.933 62.796-51.826 19.977-17.978 39.315-36.437 58.003-55.366 18.797-18.857 37.075-38.135 54.764-57.799 17.881-19.543 35.125-39.532 52.055-59.798l-72.248 7.357c95.308 93.068 194.986 181.211 298.602 264.959 51.838 41.868 105.001 82.219 159.5 121.064 27.238 19.447 55.222 38.063 83.23 56.643 13.884 9.404 28.514 18.026 42.723 27.081 14.341 8.899 29.020 17.436 43.903 25.72zM705.313 427.494v-254.266c0-21.53-17.496-39.014-39.014-39.014h-482.342c-21.53 0-39.038 17.472-39.038 39.014v482.318c0 21.518 17.52 39.014 39.038 39.014h482.342c21.53 0 39.038-17.496 39.038-39.014v-3.721l39.508 24.492c-9.26 34.884-40.832 60.785-78.558 60.785h-482.33c-44.963 0-81.556-36.606-81.556-81.556v-482.33c0-44.963 36.594-81.532 81.556-81.532h482.342c44.963 0 81.556 36.582 81.556 81.532v290.27l-42.542-35.992z" />
<glyph unicode="&#xe919;" glyph-name="check-2" d="M907.078 828.183c-38.966-39.52-77.944-79.064-116.922-118.596-12.499 33.126-44.469 56.799-81.93 56.799h-518.213c-48.31 0-87.625-39.315-87.625-87.613v-518.237c0-48.298 39.315-87.625 87.625-87.625h518.213c48.322 0 87.625 39.339 87.625 87.625v359.556c69.395 70.382 138.765 140.776 208.16 211.146 62.11 63.001-34.788 159.994-96.933 96.945zM750.143 160.548c0-23.119-18.809-41.916-41.916-41.916h-518.213c-23.119 0-41.928 18.809-41.928 41.916v518.237c0 23.107 18.809 41.916 41.928 41.916h518.213c23.119 0 41.916-18.809 41.916-41.916v-9.766c-95.825-97.21-191.663-194.408-287.488-291.63-38.544 47.443-77.077 94.886-115.633 142.317-55.788 68.66-152.179-28.972-96.933-96.945 53.139-65.409 106.265-130.806 159.428-196.214 23.469-28.863 72.73-24.552 96.933 0 81.255 82.399 162.475 164.798 243.694 247.198v-313.197z" />
<glyph unicode="&#xe91a;" glyph-name="check-3" d="M143.63 339.363c55.053-67.757 110.131-135.562 165.232-203.331 24.336-29.935 75.379-25.443 100.473 0 171.903 174.359 343.782 348.719 515.661 523.054 64.349 65.276-36.064 165.81-100.497 100.473-171.891-174.347-343.77-348.707-515.637-523.078 33.499 0 66.974 0 100.473 0-55.065 67.829-110.131 135.598-165.22 203.355-57.835 71.177-157.742-30.031-100.485-100.473v0z" />
<glyph unicode="&#xe91b;" glyph-name="chevron-down" d="M502.969 305.538c0.939-0.409 1.842-0.819 2.806-1.12 7.044-2.264 15.052-0.999 21.109 4.094l233.218 196.202c9.392 7.911 10.608 21.951 2.697 31.356l-25.684 30.501c-7.887 9.392-21.915 10.633-31.332 2.721l-193.493-162.788-194.155 162.511c-9.416 7.863-23.433 6.635-31.332-2.782l-25.588-30.597c-7.887-9.416-6.659-23.433 2.757-31.332l233.699-195.6c1.481-1.216 3.083-2.155 4.732-2.926 0.169-0.096 0.373-0.144 0.566-0.241z" />
<glyph unicode="&#xe91c;" glyph-name="chevron-left" d="M378.569 457.115c-0.409-0.963-0.819-1.878-1.12-2.83-2.252-7.044-1.011-15.052 4.118-21.109l196.178-233.23c7.923-9.392 21.963-10.608 31.356-2.697l30.525 25.684c9.404 7.887 10.608 21.927 2.709 31.356l-162.8 193.469 162.535 194.167c7.887 9.416 6.635 23.457-2.782 31.332l-30.573 25.612c-9.416 7.863-23.457 6.635-31.356-2.794l-195.6-233.699c-1.24-1.469-2.155-3.071-2.95-4.72-0.096-0.181-0.144-0.361-0.241-0.542z" />
<glyph unicode="&#xe91d;" glyph-name="chevron-right" d="M645.383 438.957c0.409 0.963 0.819 1.878 1.096 2.83 2.264 7.044 1.011 15.052-4.094 21.109l-196.202 233.206c-7.911 9.404-21.951 10.608-31.356 2.697l-30.501-25.672c-9.392-7.887-10.608-21.927-2.697-31.356l162.763-193.469-162.487-194.155c-7.887-9.428-6.659-23.469 2.77-31.332l30.597-25.612c9.416-7.875 23.433-6.635 31.332 2.77l195.612 233.711c1.216 1.469 2.143 3.059 2.926 4.708 0.072 0.193 0.144 0.373 0.241 0.566z" />
<glyph unicode="&#xe91e;" glyph-name="chevron-up" d="M521.103 579.841c-0.939 0.409-1.878 0.819-2.83 1.096-7.032 2.24-15.028 0.999-21.109-4.118l-233.206-196.178c-9.392-7.911-10.608-21.927-2.697-31.332l25.672-30.501c7.911-9.416 21.951-10.608 31.356-2.709l193.469 162.776 194.143-162.511c9.416-7.887 23.457-6.635 31.332 2.782l25.612 30.573c7.887 9.416 6.635 23.457-2.782 31.356l-233.699 195.576c-1.457 1.24-3.059 2.155-4.708 2.95-0.181 0.084-0.373 0.157-0.554 0.241z" />
<glyph unicode="&#xe91f;" glyph-name="close-0" d="M731.021 638.579l-59.039 50.213c-8.176 6.924-20.422 5.948-27.346-2.228l-133.467-156.96-131.552 160.957c-6.779 8.284-19.001 9.525-27.286 2.745l-60.014-49.057c-8.309-6.803-9.525-19.013-2.745-27.286l145.014-177.406-144.822-170.362c-6.924-8.176-5.948-20.386 2.228-27.334l59.039-50.225c8.152-6.912 20.386-5.936 27.334 2.24l131.046 154.118 126.916-155.189c6.779-8.309 18.989-9.549 27.286-2.745l60.014 49.033c8.26 6.779 9.513 18.989 2.745 27.31l-140.367 171.674 147.23 173.167c6.936 8.176 5.936 20.386-2.216 27.334z" />
<glyph unicode="&#xe920;" glyph-name="close-1" d="M511.988 960c-282.756 0-511.988-229.22-511.988-512s229.22-511.988 511.976-511.988c282.78 0 512.012 229.196 512.012 511.988 0.012 282.78-229.22 512-512 512zM511.988 6.382c-243.898 0-441.63 197.696-441.63 441.63 0 243.91 197.732 441.642 441.63 441.642 243.935 0 441.666-197.732 441.666-441.642-0.012-243.935-197.744-441.63-441.666-441.63zM724.446 638.579l-57.136 48.611c-7.887 6.719-19.76 5.756-26.455-2.131l-129.18-151.926-127.314 155.755c-6.575 8.032-18.387 9.224-26.419 2.661l-58.076-47.479c-8.032-6.575-9.224-18.387-2.649-26.419l140.367-171.698-140.21-164.895c-6.695-7.875-5.732-19.76 2.155-26.419l57.173-48.599c7.875-6.731 19.724-5.768 26.455 2.119l126.844 149.193 122.81-150.216c6.551-8.008 18.387-9.236 26.395-2.661l58.1 47.479c8.044 6.551 9.2 18.387 2.625 26.419l-135.815 166.135 142.486 167.628c6.719 7.887 5.756 19.748-2.155 26.443z" />
<glyph unicode="&#xe921;" glyph-name="close-2" d="M512 960c-282.768 0-512-229.232-512-512 0-282.756 229.232-511.988 512-511.988s512 229.232 512 511.988c-0.012 282.768-229.244 512-512 512zM726.626 612.136l-142.546-167.616 135.863-166.159c6.538-8.020 5.358-19.844-2.649-26.407l-58.076-47.479c-8.044-6.563-19.868-5.358-26.431 2.661l-122.798 150.204-126.844-149.181c-6.719-7.899-18.568-8.838-26.455-2.143l-57.173 48.611c-7.887 6.707-8.838 18.556-2.119 26.431l140.162 164.859-140.367 171.71c-6.538 8.032-5.358 19.856 2.637 26.419l58.112 47.479c8.008 6.551 19.832 5.383 26.407-2.661l127.326-155.731 129.18 151.914c6.707 7.899 18.532 8.85 26.419 2.155l57.197-48.611c7.887-6.719 8.838-18.556 2.155-26.455z" />
<glyph unicode="&#xe922;" glyph-name="coffee" d="M90.9 233.121c-1.084-6.045-1.686-12.282-1.686-18.628 0-57.341 45.372-103.833 101.328-103.833h662.505c55.968 0 101.328 46.492 101.328 103.833 0 6.346-0.578 12.583-1.662 18.628h-861.814zM844.523 691.682h-74.030c-0.084 1.481-0.253 2.938-0.446 4.371v30.116c0 6.262-5.057 11.307-11.307 11.307h-532.434c-6.249 0-11.319-5.057-11.319-11.307v-332.138h0.674v-86.529c0-24.998 20.591-45.276 46.046-45.276h462.943c25.431 0 46.046 20.278 46.046 45.276v127.061h73.862c55.487 0 100.485 57.594 100.485 128.566 0 70.996-45.023 128.554-100.522 128.554zM802.27 495.238h-31.585v137.151h31.585c44.505 0 80.593-30.706 80.593-68.588s-36.040-68.564-80.593-68.564zM469.446 960c0 0-6.526-3.877-17.195-10.873-5.395-3.408-11.608-7.899-18.291-12.944-6.478-4.949-13.727-11.475-16.918-17.556-1.626-3.107-0.71-4.913 0.060-4.78 0.53-0.12 2.95-1.626 7.225-3.167 8.73-3.071 21.795-5.346 35.245-6.84 13.607-1.662 28.237-2.625 43.192-3.54 15.148-0.759 30.079-1.505 46.167-2.023 16.713-0.867 33.933-1.878 53.656-7.863 5.021-1.529 10.319-3.637 16.063-7.153 5.527-3.408 12.222-9.019 15.1-17.111 2.986-8.032 1.060-15.846-1.674-20.844-2.745-5.226-6.069-8.923-9.296-12.114-13.161-12.114-26.371-18.315-39.074-24.251-12.704-5.708-24.986-10.030-36.522-13.583-23.071-7.008-42.976-10.946-57.257-12.716-14.233-1.951-22.614-1.481-22.614-1.481s7.092 3.275 18.568 9.501c11.427 6.31 27.647 15.232 46.167 26.298 9.248 5.503 19.086 11.524 28.731 18.026 9.416 6.406 19.579 13.884 24.697 20.278 1.192 1.493 1.866 2.854 1.794 3.179 0 0.506-0.951-1.072-0.217-3.287 0.843-2.264 2.143-3.095 1.577-2.866-0.421 0.169-2.119 0.819-4.395 1.469-4.431 1.361-10.97 2.444-17.617 3.239-3.299 0.47-6.888 0.843-10.332 1.18-3.287 0.301-6.912 0.602-11.030 0.843-15.473 1.072-32.114 2.264-47.913 4.287-15.955 1.903-31.681 4.516-47.058 7.923-15.329 3.721-30.308 7.731-44.866 15.883-7.020 4.142-15.208 10.043-18.315 19.796-1.445 4.744-0.915 9.705 0.759 13.522 1.626 3.889 3.986 6.9 6.382 9.416 9.946 9.645 20.531 13.679 29.465 17.629 9.055 3.745 17.376 5.973 24.083 7.875 13.619 3.588 21.65 4.648 21.65 4.648z" />
<glyph unicode="&#xe923;" glyph-name="comment-0" d="M512.012 800.199c-282.78 0-512.012-137.224-512.012-306.478 0-106.771 91.165-200.73 229.389-255.615 23.264-9.236 47.913-17.328 73.645-24.227v-99.799l94.609 80.822c36.798-5.033 75.042-7.67 114.369-7.67 282.756 0 511.988 137.212 511.988 306.49 0 169.254-229.22 306.478-511.988 306.478zM825.474 413.598h-609.547c-7.682 0-13.884 6.237-13.884 13.932 0 7.682 6.201 13.896 13.884 13.896h609.547c7.694 0 13.908-6.213 13.908-13.896 0-7.694-6.225-13.932-13.908-13.932zM825.474 497.189h-609.547c-7.682 0-13.884 6.237-13.884 13.92 0 7.706 6.201 13.932 13.884 13.932h609.547c7.694 0 13.908-6.237 13.908-13.932 0-7.682-6.225-13.92-13.908-13.92zM825.474 573.808h-609.547c-7.682 0-13.884 6.225-13.884 13.932 0 7.682 6.201 13.932 13.884 13.932h609.547c7.694 0 13.908-6.249 13.908-13.932 0-7.706-6.225-13.932-13.908-13.932z" />
<glyph unicode="&#xe924;" glyph-name="comment-1" d="M733.851 67.673l-119.089 100.786c-33.668-4.166-68.239-6.237-102.761-6.237-282.322 0-512 140.222-512 312.595 0 172.348 229.678 312.558 512.012 312.558 282.286 0 511.988-140.21 511.988-312.558 0-107.084-87.276-205.306-233.422-262.803-18.026-7.080-37.027-13.535-56.715-19.278v-125.062zM628.151 214.096l62.182-52.645v64.542l16.172 4.299c23.854 6.31 46.793 13.787 68.142 22.192 128.891 50.718 205.86 133.816 205.86 222.332 0 148.35-210.183 269.041-468.494 269.041-258.36 0-468.506-120.679-468.506-269.041 0-148.398 210.146-269.101 468.506-269.101 35.883 0 71.779 2.372 106.59 7.092l9.549 1.288zM830.11 549.954c0-7.682-6.249-13.92-13.92-13.92h-608.427c-7.658 0-13.884 6.237-13.884 13.92v0c0 7.682 6.237 13.884 13.884 13.884h608.415c7.682 0 13.932-6.201 13.932-13.884v0zM830.11 473.456c0-7.658-6.249-13.884-13.92-13.884h-608.427c-7.658 0-13.884 6.237-13.884 13.884v0c0 7.694 6.237 13.92 13.884 13.92h608.415c7.682 0 13.932-6.225 13.932-13.92v0zM830.11 390.009c0-7.694-6.249-13.896-13.92-13.896h-608.427c-7.658 0-13.884 6.213-13.884 13.896v0c0 7.682 6.237 13.908 13.884 13.908h608.415c7.682 0 13.932-6.225 13.932-13.908v0z" />
<glyph unicode="&#xe925;" glyph-name="comment-2" d="M512 807.869c-282.744 0-512-137.224-512-306.502 0-106.759 91.165-200.706 229.389-255.639 23.276-9.236 47.913-17.267 73.657-24.179v-99.799l94.585 80.786c36.786-5.033 75.042-7.694 114.357-7.694 282.78 0 512 137.248 512 306.526s-229.208 306.502-511.988 306.502zM329.284 449.854c-33.752 0-61.11 27.322-61.11 61.074s27.358 61.146 61.11 61.146 61.11-27.394 61.11-61.146c0-33.752-27.358-61.074-61.11-61.074zM512 449.854c-33.752 0-61.11 27.322-61.11 61.074s27.358 61.146 61.11 61.146 61.146-27.394 61.146-61.146c0-33.752-27.406-61.074-61.146-61.074zM694.704 449.854c-33.764 0-61.074 27.322-61.074 61.074s27.322 61.146 61.074 61.146c33.752 0 61.11-27.394 61.11-61.146 0.012-33.752-27.358-61.074-61.11-61.074z" />
<glyph unicode="&#xe926;" glyph-name="comment-3" d="M733.863 88.878l-119.077 100.811c-33.728-4.178-68.239-6.274-102.797-6.274-282.322 0.012-511.988 140.21-511.988 312.583 0 172.348 229.665 312.57 512 312.57s512-140.222 512-312.57c0-107.036-87.24-205.246-233.434-262.767-18.026-7.068-37.027-13.535-56.691-19.242v-125.11zM628.151 235.313l62.182-52.657v64.554l16.184 4.275c23.842 6.322 46.781 13.787 68.142 22.204 128.891 50.742 205.872 133.828 205.872 222.308 0 148.362-210.183 269.065-468.531 269.065s-468.506-120.703-468.506-269.065c0-148.386 210.146-269.077 468.494-269.077 35.944 0 71.791 2.372 106.59 7.104l9.573 1.288zM370.875 500.729c0-40.673-32.972-73.645-73.645-73.645s-73.645 32.972-73.645 73.645c0 40.673 32.972 73.645 73.645 73.645s73.645-32.972 73.645-73.645zM591.088 500.729c0-40.673-32.972-73.645-73.645-73.645s-73.645 32.972-73.645 73.645c0 40.673 32.972 73.645 73.645 73.645s73.645-32.972 73.645-73.645zM811.301 500.705c0-40.666-32.967-73.633-73.633-73.633s-73.633 32.967-73.633 73.633c0 40.666 32.967 73.633 73.633 73.633s73.633-32.967 73.633-73.633z" />
<glyph unicode="&#xe927;" glyph-name="comment-4" d="M654.004 474.888c0-19.658-15.936-35.594-35.594-35.594s-35.594 15.936-35.594 35.594c0 19.658 15.936 35.594 35.594 35.594s35.594-15.936 35.594-35.594zM441.173 474.9c0-19.658-15.936-35.594-35.594-35.594s-35.594 15.936-35.594 35.594c0 19.658 15.936 35.594 35.594 35.594s35.594-15.936 35.594-35.594zM547.57 474.888c0-19.658-15.936-35.594-35.594-35.594s-35.594 15.936-35.594 35.594c0 19.658 15.936 35.594 35.594 35.594s35.594-15.936 35.594-35.594zM512.012 960c-282.756 0-512.012-229.232-512.012-512.012 0-282.732 229.256-512 512.012-512 282.744 0 511.976 229.256 511.976 512 0 282.78-229.232 512.012-511.976 512.012zM511.976 290.788c-22.891 0-45.167 1.553-66.589 4.479l-55.077-47.070v58.112c-15.028 4.034-29.357 8.742-42.903 14.113-80.533 31.958-133.623 86.71-133.623 148.88 0 98.595 133.527 178.514 298.205 178.514 164.714 0 298.205-79.919 298.205-178.514-0.012-98.583-133.503-178.514-298.217-178.514z" />
<glyph unicode="&#xe928;" glyph-name="comment-5" d="M512 960c-282.792 0-512-229.22-512-512 0-282.756 229.208-512 512-512 282.756 0 512 229.232 512 512-0.012 282.78-229.244 512-512 512zM512 6.358c-243.935 0-441.642 197.744-441.642 441.654 0 243.922 197.708 441.642 441.642 441.642 243.91 0 441.654-197.72 441.654-441.642-0.012-243.91-197.756-441.654-441.654-441.654zM512 640.47c-158.645 0-287.259-76.981-287.259-171.963 0-59.87 51.152-112.611 128.698-143.413 13.065-5.166 26.888-9.705 41.314-13.583v-55.98l53.090 45.348c20.639-2.818 42.097-4.323 64.157-4.323 158.669 0 287.259 77.005 287.259 171.963 0 94.983-128.602 171.951-287.259 171.951zM409.468 439.619c-18.929 0-34.282 15.341-34.282 34.258 0 18.953 15.353 34.318 34.282 34.318 18.977 0 34.306-15.365 34.306-34.318 0-18.917-15.329-34.258-34.306-34.258zM512 439.607c-18.917 0-34.282 15.353-34.282 34.27 0 18.953 15.353 34.318 34.282 34.318s34.306-15.365 34.306-34.318c-0.012-18.917-15.389-34.27-34.306-34.27zM614.52 439.607c-18.953 0-34.282 15.353-34.282 34.27 0 18.953 15.317 34.318 34.282 34.318 18.917 0 34.27-15.365 34.27-34.318 0-18.917-15.353-34.27-34.27-34.27z" />
<glyph unicode="&#xe929;" glyph-name="comment-6" d="M511.988 795.322c-282.768 0-511.988-137.212-511.988-306.502 0-106.747 91.141-200.778 229.364-255.627 23.264-9.236 47.913-17.34 73.645-24.227v-99.787l94.609 80.834c36.774-5.045 75.042-7.719 114.345-7.719 282.768 0 512.012 137.236 512.012 306.526 0.024 169.29-229.22 306.502-511.988 306.502z" />
<glyph unicode="&#xe92a;" glyph-name="comment-7" d="M733.851 92.61l-119.065 100.798c-33.692-4.166-68.227-6.274-102.785-6.274-282.322 0-512 140.222-512 312.595 0 172.348 229.678 312.558 512 312.558 282.31 0 512-140.198 512-312.558 0-107.060-87.264-205.282-233.41-262.791-18.014-7.104-37.063-13.547-56.739-19.29v-125.038zM628.187 239.058l62.194-52.657v64.506l16.135 4.299c23.854 6.346 46.793 13.799 68.13 22.204 128.891 50.706 205.848 133.816 205.848 222.308 0 148.362-210.122 269.041-468.482 269.041-258.336 0-468.519-120.679-468.519-269.041 0-148.398 210.195-269.089 468.519-269.089 35.932 0 71.779 2.396 106.602 7.104l9.573 1.325z" />
<glyph unicode="&#xe92b;" glyph-name="comment-8" d="M616.339 668.213c225.162 0 407.649-108.252 407.649-241.815 0-84.23-72.586-158.405-182.656-201.705-18.508-7.273-38.111-13.679-58.593-19.122v-78.727l-75.331 63.759c-29.321-3.95-59.773-6.045-91.069-6.045-225.15 0-407.649 108.252-407.649 241.827-0.012 133.575 182.499 241.827 407.649 241.827zM152.095 431.852c-0.036 144.148 178.779 263.49 411.984 284.309-49.105 12.74-103.195 19.88-160.114 19.88-223.115 0-403.965-108.276-403.965-241.827 0-84.217 71.923-158.417 180.994-201.693 15.281-6.069 31.476-11.343 48.129-16.148-48.671 44.842-77.029 98.161-77.029 155.478z" />
<glyph unicode="&#xe92c;" glyph-name="comment-9" d="M814.42 152.287l-86.012 72.802c-24.336-2.974-49.273-4.516-74.235-4.516-203.921 0-369.827 101.28-369.827 225.776 0 124.484 165.906 225.776 369.827 225.776s369.827-101.304 369.827-225.788c0-77.318-63.049-148.254-168.592-189.784-13.029-5.142-26.768-9.802-40.989-13.944v-90.322zM738.089 258.071l44.914-38.039v46.624l11.692 3.095c17.195 4.576 33.788 9.934 49.189 16.027 93.116 36.618 148.711 96.644 148.711 160.56 0 107.144-151.806 194.336-338.411 194.336s-338.399-87.192-338.399-194.336c0-107.144 151.782-194.36 338.399-194.36 25.949 0 51.874 1.758 77.005 5.154l6.9 0.939zM285.2 329.802l-43.325-36.546v46.6l-11.728 3.119c-17.267 4.576-33.884 9.958-49.37 16.039-93.441 36.63-149.253 96.632-149.253 160.548 0 107.144 152.36 194.336 339.652 194.336 59.244 0 115.031-8.754 163.582-24.095 20.362 3.769 41.41 6.575 62.976 8.393-62.724 29.513-141.318 47.142-226.571 47.142-204.656 0-371.176-101.28-371.176-225.776 0-77.33 63.278-148.266 169.23-189.808 13.041-5.094 26.828-9.778 41.109-13.92v-90.322l86.313 72.79c7.43-0.915 15.004-1.433 22.529-2.047-12.668 10.596-24.035 21.795-33.969 33.547z" />
<glyph unicode="&#xe92d;" glyph-name="comment-10" d="M512 959.988c-282.78 0-512-229.232-512-511.988 0-282.744 229.22-512 512-512 282.744 0 512 229.256 512 512-0.012 282.756-229.256 511.988-512 511.988zM512 6.37c-243.922 0-441.654 197.72-441.654 441.63s197.72 441.642 441.654 441.642c243.922 0 441.654-197.732 441.654-441.642s-197.744-441.63-441.654-441.63zM591.172 611.63c155.635 0 281.72-74.813 281.72-167.122 0-58.196-50.152-109.468-126.218-139.391-12.788-5.009-26.347-9.452-40.471-13.221v-54.403l-52.079 44.047c-20.242-2.733-41.302-4.166-62.952-4.166-155.599 0-281.72 74.813-281.72 167.11 0 92.333 126.11 167.147 281.72 167.147zM362.277 323.673c-52.175 32.921-84.217 77.185-84.217 125.977 0 99.426 133.142 180.392 299.457 183.667-42.759 15.955-93.188 25.179-147.254 25.179-154.238 0-279.192-74.825-279.192-167.122 0-58.184 49.719-109.444 125.098-139.391 12.692-5.033 26.094-9.428 40.11-13.197v-54.439l45.998 39.327z" />
<glyph unicode="&#xe92e;" glyph-name="comment-11" d="M512.012 959.988c-282.744 0-512-229.232-512-512 0-282.756 229.256-511.988 512-511.988 282.768 0 512 229.22 512 511.988-0.012 282.768-229.232 512-512 512zM314.63 282.925v54.909c-14.173 3.805-27.719 8.248-40.495 13.306-76.017 30.176-126.182 81.894-126.182 140.583 0 93.104 126.073 168.579 281.624 168.579 54.511 0 105.386-9.332 148.519-25.395-167.749-3.323-302.034-84.976-302.034-185.281 0-49.165 32.319-93.839 84.964-127.025l-46.395-39.676zM748.722 303.889c-12.908-5.094-26.563-9.525-40.856-13.318v-54.909l-52.525 44.445c-20.434-2.757-41.663-4.19-63.446-4.19-156.984 0-284.201 75.451-284.201 168.543s127.217 168.567 284.201 168.567c156.899 0 284.153-75.463 284.153-168.567 0-58.69-50.598-110.395-127.326-140.571z" />
<glyph unicode="&#xe92f;" glyph-name="commercial" d="M85.337 845.498v-788.723h474.021v788.723h-474.021zM277.446 261.13h-98.113v106.205h98.113v-106.205zM277.446 438.752h-98.113v106.241h98.113v-106.241zM277.446 596.217h-98.113v106.241h98.113v-106.241zM467.363 261.13h-98.077v106.205h98.077v-106.205zM467.363 438.752h-98.077v106.241h98.077v-106.241zM467.363 596.217h-98.077v106.241h98.077v-106.241zM640.301 485.81v-429.035h65.806v196.19h166.785v-196.19h65.77v429.035zM640.301 604.382h298.35v-69.503h-298.35v69.503z" />
<glyph unicode="&#xe930;" glyph-name="conference" d="M251.448 379.183c0-50.14-40.628-90.78-90.756-90.78s-90.756 40.64-90.756 90.78c0 50.092 40.628 90.72 90.756 90.72s90.756-40.628 90.756-90.72zM511.169 407.854c0-60.385-48.951-109.336-109.336-109.336s-109.336 48.951-109.336 109.336c0 60.385 48.951 109.336 109.336 109.336s109.336-48.951 109.336-109.336zM595.242 0.506c0.108 3.444 0.205 6.864 0.205 10.307 0 144.063-86.674 260.792-193.614 260.792-106.916 0-193.602-116.729-193.602-260.792 0-3.444 0.084-6.864 0.205-10.307h386.806zM939.722 407.854c0-60.385-48.951-109.336-109.336-109.336s-109.336 48.951-109.336 109.336c0 60.385 48.951 109.336 109.336 109.336s109.336-48.951 109.336-109.336zM1023.795 0.506c0.108 3.444 0.205 6.864 0.205 10.307 0 144.063-86.674 260.792-193.602 260.792s-193.602-116.729-193.602-260.792c0-3.444 0.096-6.864 0.193-10.307h386.806zM258.468 221.357c-27.093 28.032-60.99 44.734-97.788 44.734-88.745 0-160.68-96.885-160.68-216.456 0-2.866 0.072-5.72 0.157-8.549h180.777c9.139 72.176 37.376 135.562 77.535 180.272zM225.005 595.495c-10.5 3.059-20.663 6.514-30.296 10.295-78.137 30.73-124.773 83.242-124.773 140.451 0 92.117 122.774 167.074 273.677 167.074 150.891 0 273.677-74.97 273.677-167.074 0-92.129-122.774-167.062-273.677-167.062-18.459 0-36.919 1.108-54.945 3.335l-63.651-53.885v66.866zM286.633 606.2c18.604-2.505 37.762-3.781 56.968-3.781 138.091 0 250.413 64.518 250.413 143.81 0 79.305-112.322 143.822-250.413 143.822-138.103 0-250.437-64.506-250.437-143.822 0-47.287 41.145-91.707 110.046-118.812 11.427-4.491 23.685-8.489 36.425-11.861l8.646-2.3v-34.487l33.234 28.141 5.118-0.71zM497.779 748.77c0-21.746-17.629-39.375-39.375-39.375s-39.375 17.629-39.375 39.375c0 21.746 17.629 39.375 39.375 39.375s39.375-17.629 39.375-39.375zM380.062 748.77c0-21.746-17.629-39.375-39.375-39.375s-39.375 17.629-39.375 39.375c0 21.746 17.629 39.375 39.375 39.375s39.375-17.629 39.375-39.375zM262.346 748.77c0-21.74-17.624-39.363-39.363-39.363s-39.363 17.624-39.363 39.363c0 21.74 17.624 39.363 39.363 39.363s39.363-17.624 39.363-39.363z" />
<glyph unicode="&#xe931;" glyph-name="door-man" d="M682.301 702.278h-328.67c-11.813-26.708-18.484-56.691-18.484-88.444 0-111.383 81.845-201.705 182.8-201.705 100.979 0 182.849 90.335 182.849 201.705-0.036 31.753-6.659 61.736-18.496 88.444zM251.87 377.799c-131.010-65.794-217.72-179.742-217.72-309.416 0-17.303 1.662-34.318 4.648-50.995h588.463v289.74c-36.172-9.127-75.439-14.233-116.597-14.233-106.085 0.012-200.14 33.427-258.794 84.904zM574.266 74.344h-63.591v60.941h63.591v-60.941zM574.266 181.668h-63.591v60.905h63.591v-60.905zM665.66 17.376h11.921v305.936c-3.913-1.505-7.863-3.010-11.921-4.419v-301.516zM770.408 378.654c-21.41-19.001-47.684-35.534-77.583-48.936v-312.366h292.401c2.986 16.689 4.648 33.692 4.648 50.995-0.024 130.276-87.493 244.633-219.466 310.307zM694.21 862.91l2.577 22.192h-357.665l2.143-22.192zM342.12 853.963l8.26-85.446h332.86l9.934 85.446z" />
<glyph unicode="&#xe932;" glyph-name="dot" d="M1024 448.012c0-282.756-229.136-512-511.928-512-282.708 0.012-512.072 229.244-512.072 512 0 282.696 229.364 511.952 512.072 511.952 282.792 0 511.928-229.256 511.928-511.952z" />
<glyph unicode="&#xe933;" glyph-name="elevator" d="M109.288 925.863v-922.515c0-18.363 14.895-33.21 33.222-33.21 18.339 0 33.222 14.835 33.222 33.21v864.668h675.004v-864.668c0-18.363 14.835-33.21 33.21-33.21 18.339 0 33.21 14.835 33.21 33.21v922.515h-807.869zM195.010 844.427h205.727v-809.988h-205.727v809.988zM627.85 844.427h205.763v-809.988h-205.763v809.988zM43.939 565.873c-24.263 0-43.939-17.255-43.939-38.569v-120.029c0-21.289 19.676-38.593 43.939-38.593s43.927 17.316 43.927 38.593v120.029c0.012 21.301-19.652 38.569-43.927 38.569zM43.939 417.403l-27.274 27.274h54.56l-27.286-27.274zM16.665 491.77l27.274 27.274 27.286-27.274h-54.56z" />
<glyph unicode="&#xe934;" glyph-name="email-0" d="M75.801 503.33v-509.604l267.861 300.204zM518.852 196.768l390.093 314.63h-80.075v414.465h-635.4v-414.465h-77.029l402.411-314.63zM243.152 881.707h536.035v-370.297h-536.035v370.297zM519.177 156.683l-150.746 117.873-271.594-304.418h829.676l-266.392 300.288zM684.553 290.125l261.948-295.231v506.497zM298.398 816.069h425.555v-23.541h-425.555v23.541zM298.398 765.086h425.555v-23.517h-425.555v23.517zM298.398 718.028h425.555v-23.541h-425.555v23.541z" />
<glyph unicode="&#xe935;" glyph-name="email-1" d="M334.69 501.223l-283.49 221.682v-539.43zM933.015 731.466h-838.815l425.94-333.089zM951.655 158.549l-281.985 317.784-149.205-120.354-159.56 124.737-287.464-322.167zM695.571 497.201l277.229-312.474v536.119z" />
<glyph unicode="&#xe936;" glyph-name="email-2" d="M219.49 624.43v-342.469l179.935 201.729zM779.283 629.849h-532.543l270.426-211.435zM517.395 391.49l-101.316 79.208-182.487-204.523h557.516l-179.019 201.717zM804.522 282.804v340.314l-176.009-141.98zM512.012 960c-282.768 0-512-229.244-512-512 0-282.768 229.232-512.012 511.988-512.012s512 229.244 512 512.012c0 282.756-229.232 512-511.988 512zM512.012-1.939c-248.51 0-449.927 201.44-449.927 449.927 0 248.498 201.416 449.939 449.927 449.939s449.927-201.44 449.927-449.939c0-248.474-201.428-449.927-449.927-449.927z" />
<glyph unicode="&#xe937;" glyph-name="email-3" d="M511.976 960c-282.756 0-511.976-229.244-511.976-512 0-282.78 229.22-512 511.976-512s512.012 229.22 512.012 512c0 282.756-229.256 512-512.012 512zM779.259 629.849l-262.093-211.435-270.414 211.435h532.506zM219.454 624.418l179.971-140.728-179.971-201.717v342.445zM233.543 266.151l182.56 204.547 101.268-79.208 94.694 76.403 178.995-201.741h-557.516zM804.522 282.78l-175.997 198.358 175.985 141.992v-340.35z" />
<glyph unicode="&#xe938;" glyph-name="email-4" d="M913.219 745.627h-802.487c-32.873 0-59.521-28.478-59.521-63.591v-467.459c0-35.137 26.66-63.615 59.521-63.615h802.523c32.873 0 59.545 28.49 59.545 63.615v467.447c0 35.137-26.66 63.603-59.581 63.603zM891.846 705.77l-370.502-298.879-382.242 298.879h752.744zM100.534 214.036v484.088l254.411-198.948-254.411-285.14zM120.498 191.639l257.975 289.15 143.196-111.985 133.864 108.035 253.026-285.212-788.061 0.012zM927.585 215.156l-248.835 280.42 248.835 200.694v-481.114z" />
<glyph unicode="&#xe939;" glyph-name="family" d="M441.462 675.522c0-77.549-62.866-140.415-140.415-140.415s-140.415 62.866-140.415 140.415c0 77.549 62.866 140.415 140.415 140.415s140.415-62.866 140.415-140.415zM863.344 675.522c0-77.542-62.86-140.403-140.403-140.403s-140.403 62.86-140.403 140.403c0 77.542 62.86 140.403 140.403 140.403s140.403-62.86 140.403-140.403zM588.174 414.453c0-43.313-35.112-78.426-78.426-78.426s-78.426 35.112-78.426 78.426c0 43.313 35.112 78.426 78.426 78.426s78.426-35.112 78.426-78.426zM509.411 258.119c-72.056 0-131.925-67.974-144.328-157.574h288.68c-12.379 89.612-72.26 157.574-144.352 157.574zM722.941 500.561c-41.218 0-80.111-13.547-114.345-37.485 8.79-16.051 13.799-34.462 13.799-54.042 0-62.218-50.429-112.635-112.635-112.635-62.218 0-112.647 50.429-112.647 112.635 0 20.47 5.539 39.616 15.088 56.161-33.451 22.59-71.189 35.366-111.154 35.366-137.296 0-248.619-149.927-248.619-334.907 0-4.443 0.12-8.826 0.253-13.282h286.356c29.285 67.492 80.906 116.043 141.763 128.59 3.083 0.674 6.177 1.3 9.308 1.758-0.012-0.024-0.024-0.060-0.036-0.108 7.213 1.036 14.486 1.746 21.903 1.746 74.223 0 138.825-53.199 172.999-131.974h286.368c0.144 4.419 0.253 8.802 0.253 13.282-0.012 184.968-111.323 334.895-248.655 334.895z" />
<glyph unicode="&#xe93a;" glyph-name="fan" d="M505.209 838.709l-0.289 0.036c-16.832 22.467-43.669 37.601-74.588 38.395-52.591 1.445-96.44-38.576-97.777-89.288-0.614-24.309 8.813-46.595 24.417-63.427 0.108-0.253 0.361-0.433 0.542-0.722 1.336-1.336 2.745-2.637 4.154-3.901 0.975-0.939 1.734-2.059 2.998-2.926 1.698-1.228 3.142-2.42 4.768-3.684 1.481-1.084 2.781-2.276 4.262-3.287 116.703-88.060 106.698-166.766 106.698-166.766s41.682-7.332 78.308 87.844c36.626 95.212-53.494 207.726-53.494 207.726zM816.202 532.81l0.036 0.361c23.442 15.459 40.021 41.393 42.73 72.204 4.407 52.41-33.050 98.499-83.582 102.725-24.309 2.059-47.028-6.14-64.763-20.697-0.253-0.181-0.506-0.361-0.759-0.506-1.445-1.228-2.745-2.601-4.154-3.901-0.975-1.047-2.059-1.698-3.034-2.853-1.3-1.662-2.637-2.998-3.937-4.551-1.156-1.445-2.384-2.673-3.504-4.118-94.67-111.43-172.545-96.91-172.545-96.91s-9.789-41.213 83.112-83.293c92.9-42.007 210.399 41.538 210.399 41.538zM511.35 236.626h0.397c16.615-22.647 43.308-38.034 74.226-39.082 52.627-1.842 96.729 37.818 98.535 88.458 0.795 24.345-8.452 46.703-23.911 63.716-0.108 0.217-0.289 0.506-0.506 0.722-1.3 1.409-2.709 2.601-4.082 3.937-1.084 0.903-1.806 2.059-3.034 2.89-1.662 1.336-3.106 2.456-4.732 3.756-1.517 1.047-2.781 2.276-4.262 3.251-115.945 89.108-105.29 167.705-105.29 167.705s-41.574 7.73-79.030-87.157c-37.492-94.995 51.688-208.195 51.688-208.195zM202.705 542.49v-0.361c-22.033-17.338-36.445-44.608-36.445-75.635 0-52.627 41.177-95.284 91.889-95.284 24.381 0 46.342 10.077 62.776 26.115 0.217 0.144 0.47 0.361 0.722 0.578 1.3 1.336 2.492 2.817 3.756 4.226 0.975 1.047 1.987 1.842 2.853 3.106 1.192 1.77 2.348 3.179 3.54 4.876 1.011 1.553 2.167 2.89 3.142 4.371 84.954 119.051 163.876 111.141 163.876 111.141s6.249 41.863-89.903 75.96c-96.223 34.025-206.209-59.092-206.209-59.092zM556.572 539.672c0-29.943-25.211-54.216-56.311-54.216s-56.311 24.273-56.311 54.216c0 29.943 25.211 54.216 56.311 54.216s56.311-24.273 56.311-54.216zM521.319 257.648c-158.819 0-288.093 123.386-288.093 274.981 0 151.631 129.237 274.981 288.093 274.981 158.819 0 288.093-123.35 288.093-274.981 0-151.595-129.273-274.981-288.093-274.981zM521.319 781.676c-144.552 0-262.158-111.719-262.158-249.083 0-137.328 117.606-249.011 262.158-249.011s262.158 111.683 262.158 249.011c0 137.364-117.57 249.083-262.158 249.083zM471.257 157.957h100.124v-162.54h-100.124v162.54zM746.021-34.273c0-16.362-13.256-29.618-29.618-29.618h-390.131c-16.362 0-29.654 13.256-29.654 29.618v0c0 16.362 13.292 29.691 29.654 29.691h390.131c16.362 0 29.618-13.328 29.618-29.691v0zM513.228 134.515c-238.392 0-432.356 185.115-432.356 412.67 0 227.592 193.964 412.742 432.356 412.742 238.355 0 432.319-185.151 432.319-412.742 0.036-227.556-193.928-412.67-432.319-412.67zM513.228 921.063c-216.936 0-393.454-167.705-393.454-373.841s176.518-373.805 393.454-373.805 393.454 167.705 393.454 373.805c0.036 206.136-176.482 373.841-393.454 373.841z" />
<glyph unicode="&#xe93b;" glyph-name="fire" d="M778.681 98.113c-64.843 42.554-50.658-2.023-125.676 30.405-75.018 32.44-160.126 46.624-225.030 48.647-64.855 2.011-174.323 24.312-174.323 24.312s-54.728-34.45-20.254-83.098c58.786-6.093 218.937-40.555 285.814-58.786 66.914-18.255 107.457 0 166.243-16.22 58.774-16.232 66.902-36.485 66.902-36.485s91.226 48.647 26.322 91.226zM280.841 84.832l-50.333-39.387c0 0-32.849 8.766-32.849-52.525 0-61.303 59.099-50.369 59.099-50.369l105.085 54.728 8.754-61.291 21.891 6.563c0 0-21.891 43.795 17.508 81.014 10.584 10.006 36.75 22.373 69.238 35.125-50.164 11.993-115.007 26.058-169.844 36.437-17.532-6.322-28.55-10.295-28.55-10.295zM793.058 246.837l-212.326-43.795-72.224 35.004-10.946-17.496c0 0 81.002-32.849 50.357-41.591-2.757-0.783-7.237-2.216-12.993-4.13 43.325-7.622 94.164-20.519 144.725-42.386 4.407-1.903 8.393-3.468 12.186-4.865 7.309 2.071 11.5 3.227 11.5 3.227l124.749 50.357c10.946 28.454-35.028 65.674-35.028 65.674zM594.050 400.653c-57.738-64.939-48.732-117.259-48.732-117.259 5.407 12.619 34.306 9.922 69.491 20.747 73.982 18.038 84.795 36.076 117.271 65.854 57.738 51.429 35.161 192.157 19.832 247.186-32.464 86.614-72.164 112.768-72.164 112.768s4.516-10.825 10.813-132.612c-10.801-114.574-38.773-131.709-96.512-196.684zM423.568 280.685c0 0-173.215 88.408-101.942 333.787 0 0-79.389-62.242-85.699-165.991-6.322-103.749 130.794-174.106 187.641-167.797zM478.597 277.976c-9.031 37.894 63.121 111.865 86.59 142.534 81.195 108.264 63.145 102.833 86.602 167.797 21.65 135.321-86.602 330.187-120.884 371.682 14.414-95.621-99.221-196.66-155.165-315.749-97.427-236.36 102.858-366.263 102.858-366.263zM413.562 607.573c-3.781-8.959-7.104-17.58-9.717-25.708-5.19-16.244-8.032-30.296-8.501-40.254-0.169-4.961-0.048-8.947 0.53-11.572 0.181-1.361 0.518-2.336 0.686-3.022 0.181-0.698 0.289-1.048 0.289-1.048s-0.193 0.301-0.578 0.903c-0.361 0.614-1.048 1.493-1.577 2.77-1.276 2.505-2.697 6.454-3.649 11.656-2.011 10.392-2.252 25.66 0.662 43.433 2.757 17.809 8.513 38.195 17.749 58.858 4.612 10.332 10.139 20.723 16.593 30.814 6.454 10.115 13.799 19.868 22.252 28.984 8.778 9.332 17.279 16.424 25.070 24.384 7.983 7.803 15.256 15.883 22.060 23.89 6.647 8.104 12.656 16.232 17.749 24.336 2.408 4.094 4.913 8.056 6.864 12.090 1.036 2.011 2.047 3.974 3.046 5.912 0.867 1.999 1.734 3.95 2.565 5.864 3.191 7.755 5.611 15.124 7.297 21.843 1.674 6.719 2.818 12.752 3.552 17.737 0.349 2.517 0.674 4.768 0.939 6.719 0.205 1.987 0.373 3.685 0.494 5.045 0.301 2.733 0.47 4.19 0.47 4.19s0.265-1.445 0.783-4.154c0.53-2.721 1.252-6.671 1.686-11.897 0.47-5.214 0.843-11.56 0.397-18.893-0.024-3.697-0.686-7.538-1.060-11.692-0.698-4.070-1.385-8.417-2.589-12.824-2.047-8.959-5.551-18.291-9.922-27.852-4.588-9.465-10.259-18.989-16.822-28.285-6.719-9.151-14.040-18.339-22.24-26.84-3.986-4.383-8.224-8.537-12.523-12.656-3.95-3.829-8.465-8.176-11.849-11.873-7.502-7.911-14.305-16.774-20.579-25.744-6.225-9.031-11.849-18.339-16.906-27.611-4.997-9.284-9.404-18.544-13.221-27.503z" />
<glyph unicode="&#xe93c;" glyph-name="fitness" d="M962.733 115.826h-748.601l-86.313 386.637 127.35-51.104c15.281-6.129 31.813-0.771 36.919 11.945 5.13 12.752-3.119 28.032-18.411 34.161l-168.266 67.492c-1.758 0.795-3.649 1.457-5.684 1.975-4.78 1.397-9.573 1.83-14.040 1.192-2.866-0.181-5.78-0.506-8.766-1.168l-4.058-0.891c-19.206-4.275-32.584-17.472-29.923-29.405l105.88-474.335c0.867-3.853 3.432-7.044 6.984-9.549 6.526-7.49 16.039-12.342 26.78-12.342h780.126c19.676 0 35.63 15.931 35.63 35.606v4.178c0.012 19.664-15.955 35.606-35.606 35.606zM502.873 793.419c0-43.932-35.614-79.545-79.545-79.545s-79.545 35.614-79.545 79.545c0 43.932 35.614 79.545 79.545 79.545s79.545-35.614 79.545-79.545zM412.574 200.212h-42.229c-4.612 0.578-9.392 0.879-14.353 0.879-33.174 0-60.087-13.173-60.087-29.381s26.913-29.357 60.087-29.357c2.577 0 5.069 0.096 7.538 0.253 0.831-0.157 1.662-0.253 2.553-0.253h46.492c8.224 0 14.895 6.671 14.895 14.883v28.068c0.012 8.236-6.671 14.907-14.895 14.907zM882.899 409.54l13.39-39.267c0.939-4.443 2.179-9.019 3.769-13.619 10.536-30.874 31.344-51.718 46.408-46.576 15.064 5.19 18.773 34.366 8.26 65.252-0.831 2.372-1.734 4.66-2.637 6.924-0.157 0.819-0.265 1.638-0.566 2.456l-14.799 43.253c-2.601 7.67-10.946 11.764-18.604 9.139l-26.094-8.911c-7.634-2.613-11.728-10.994-9.127-18.652zM887.354 348.586c-1.818 5.383-3.287 10.729-4.371 15.919l-15.69 45.914c-0.927 2.806-1.048 5.623-0.602 8.345-1.228-0.482-2.444-0.939-3.757-1.493-53.030-21.65-85.819-15.341-104.64-10.127-53.392 10.512-86.891 75.391-109.938 116.199-23.011 40.844-68.010 132.949-64.879 135.032 13.595 6.274 32.427 5.238 47.094 6.274 55.463-3.143 66.962-29.646 94.176-59.665 27.226-30.007 59.677-8.381 62.82-6.274 36.654 25.118-2.071 64.903-18.833 79.57-68.034 79.545-167.46 69.069-200.971 62.796-33.487-6.274-94.2-49.201-162.246-72.248-66.986-14.654-111.299 48.503-116.187 53.404-4.889 4.877-9.669 15.678-27.49 23.023-30.332 8.393-55.21-14.654-54.162-36.642 1.036-21.988 28.273-62.82 99.438-102.569 71.201-39.773 141.306-8.381 141.306-8.381l85.843-151.782c0 0-29.333-18.833-79.545-50.273-48.166-26.166-72.236-93.152-99.45-146.532-7.694-15.052-12.848-27.358-16.099-37.593 5.13 0.614 10.452 0.915 15.943 0.915 5.696 0 11.211-0.301 16.485-1.011h48.491c1.385 0 2.745-0.205 4.010-0.506 11.162 31.898 31.621 79.57 72.465 114.598 50.249 44.975 126.663 65.939 126.663 65.939s24.071-29.321 85.819-63.868c59.677-21.988 114.116-13.619 160.187 1.048 8.742 2.83 16.099 6.033 22.18 9.573-1.433 3.384-2.794 6.84-4.058 10.416z" />
<glyph unicode="&#xe93d;" glyph-name="food" d="M843.512 899.287c-66.89 47.419-172.035 14.016-234.855-74.596-58.509-82.592-59.472-183.848-5.25-235.638l-6.43-10.368c-0.301-0.47-0.698-0.843-0.963-1.313l-2.396-4.106h-0.012l-303.563-522.608c-8.297-14.462-3.263-32.933 11.235-41.254l10.777-6.165c14.498-8.284 32.981-3.263 41.278 11.247l305.924 526.69c0.181 0.277 0.253 0.554 0.385 0.819l0.060 0.012 8.814 16.364c61.532-8.369 134.334 26.78 182.391 94.597 62.808 88.625 59.533 198.912-7.393 246.319zM692.488 833.999c-2.083-2.926-4.202-7.020-6.912-10.982-2.408-4.359-5.479-8.646-8.2-13.799-2.974-4.853-5.768-10.259-8.658-15.738-2.914-5.455-5.503-11.343-8.188-17.147-2.264-6.045-5.081-11.873-6.84-18.17-2.384-6.033-3.721-12.451-5.334-18.736-1.915-6.249-1.999-12.908-3.733-19.23-0.277-6.563-1.096-13.077-1.866-19.579 0.132-6.514-0.132-12.993-0.518-19.326-0.048-6.31 0.542-12.403 0.446-18.255-0.132-5.876-0.181-11.403 0.361-16.28 0.313-4.913 0.277-9.416 0.349-13.161 0.048-7.502-0.385-12.222-0.385-12.222s-3.612 2.637-9.067 8.008c-2.721 2.685-6.129 5.997-9.669 10.043-3.781 3.95-7.153 8.887-10.44 14.618-3.239 5.732-7.056 11.969-9.97 19.086-2.493 7.273-4.973 15.136-7.141 23.457-1.276 8.489-2.228 17.532-2.565 26.696 0.771 9.212 1.168 18.76 3.468 27.96 2.589 9.139 4.997 18.375 9.573 26.575 3.697 8.586 9.103 15.979 14.281 22.963 5.467 6.731 11.283 12.8 17.279 17.785 6.057 4.997 12.017 9.236 17.954 12.463 11.644 6.719 22.385 10.018 30.055 11.536 7.634 1.686 12.27 1.469 12.27 1.469s-2.372-3.637-6.551-10.030zM484.040 495.070l-53.632 61.929c-0.951 1.144-2.011 2.119-3.095 3.083-3.974 16.051-5.479 32.981-2.3 49.442 3.709 64.759-2.625 83.122-59.448 139.367-44.794 44.336-106.687 110.287-130.89 136.212l-21.843-15.413 178.55-212.844-23.396-22.228-174.961 221.080-12.884-9.091 163.089-222.368-18.556-15.076-166.292 222.116-20.567-14.486 168.146-223.645-25.961-12.15-165.112 219.623-18.989-13.402c32.211-58.389 122.437-218.142 158.838-242.791 44.686-30.272 82.315-10.91 107.915-30.862 1.481-1.132 3.022-2.408 4.612-3.757 0.963-1.589 2.023-3.143 3.311-4.624l72.068-83.194 41.398 73.079zM837.31 87.011l-228.57 264.008-41.567-72.911 210.291-242.911c11.849-13.727 32.596-15.184 46.287-3.348l10.199 8.838c13.739 11.885 15.208 32.596 3.36 46.323z" />
<glyph unicode="&#xe93e;" glyph-name="food-circle" d="M512 960c-282.31 0-512-229.69-512-512s229.69-512 512-512c282.31 0 512 229.678 512 512 0 282.31-229.69 512-512 512zM512-15.401c-255.518 0-463.389 207.931-463.389 463.401 0 255.506 207.871 463.389 463.389 463.389 255.506 0 463.377-207.883 463.377-463.389 0-255.494-207.871-463.401-463.377-463.401zM733.839 713.272c-42.675 30.272-109.793 8.947-149.879-47.612-37.352-52.705-37.942-117.331-3.335-150.385l-4.118-6.623c-0.193-0.289-0.433-0.53-0.614-0.843l-1.529-2.613h-0.012l-193.734-333.51c-5.286-9.236-2.083-21.024 7.177-26.335l6.864-3.925c9.26-5.274 21.048-2.083 26.347 7.189l195.239 336.111c0.108 0.181 0.157 0.361 0.253 0.542h0.036l5.623 10.44c39.279-5.334 85.735 17.099 116.416 60.376 40.074 56.558 37.967 126.94-4.732 157.188zM637.471 671.609c-1.337-1.866-2.697-4.479-4.431-7.008-1.529-2.782-3.492-5.515-5.214-8.802-1.915-3.095-3.697-6.538-5.539-10.030-1.854-3.48-3.504-7.249-5.226-10.946-1.445-3.853-3.251-7.574-4.371-11.584-1.517-3.853-2.348-7.947-3.396-11.969-1.228-3.986-1.264-8.236-2.384-12.27-0.181-4.19-0.698-8.345-1.192-12.511 0.084-4.142-0.084-8.284-0.325-12.33-0.036-4.022 0.337-7.923 0.277-11.656-0.072-3.757-0.108-7.273 0.241-10.392 0.205-3.131 0.181-6.009 0.217-8.393 0.048-4.792-0.241-7.803-0.241-7.803s-2.3 1.674-5.792 5.106c-1.734 1.722-3.901 3.817-6.153 6.418-2.42 2.505-4.576 5.671-6.671 9.32-2.071 3.661-4.503 7.646-6.358 12.186-1.602 4.648-3.179 9.669-4.564 14.967-0.819 5.431-1.421 11.198-1.638 17.063 0.482 5.864 0.747 11.969 2.216 17.833 1.662 5.84 3.191 11.728 6.117 16.966 2.348 5.479 5.804 10.199 9.103 14.654 3.492 4.299 7.201 8.176 11.030 11.355 3.865 3.179 7.67 5.888 11.463 7.959 7.417 4.275 14.293 6.394 19.17 7.357 4.877 1.072 7.827 0.939 7.827 0.939s-1.517-2.348-4.166-6.43zM504.414 455.309l-34.222 39.52c-0.614 0.722-1.276 1.361-1.975 1.975-2.529 10.247-3.492 21.048-1.457 31.548 2.36 41.326-1.686 53.042-37.942 88.938-28.586 28.297-68.082 70.394-83.531 86.927l-13.944-9.826 113.948-135.839-14.931-14.185-111.66 141.089-8.236-5.804 104.098-141.92-11.837-9.621-106.121 141.751-13.125-9.248 107.313-142.727-16.569-7.767-105.398 140.174-12.114-8.549c20.555-37.268 78.137-139.223 101.364-154.949 28.526-19.314 52.537-6.972 68.877-19.7 0.951-0.722 1.927-1.541 2.938-2.396 0.614-1.024 1.288-1.999 2.119-2.95l45.986-53.103 26.419 46.66zM729.877 194.878l-145.869 168.495-26.515-46.528 134.201-155.009c7.574-8.766 20.808-9.705 29.55-2.143l6.49 5.635c8.766 7.574 9.717 20.795 2.143 29.55z" />
<glyph unicode="&#xe93f;" glyph-name="fridge" d="M221.622 493.769c-5.539 0-10.813 0.722-15.57 1.951v-334.137c0-70.237 54.439-127.41 122.738-130.709-1.325-2.432-2.167-5.19-2.167-8.152 0-9.428 7.634-17.075 17.063-17.075h20.47c9.428 0 17.063 7.634 17.063 17.075 0 2.818-0.759 5.455-1.999 7.827h265.597c-1.252-2.372-1.999-4.985-1.999-7.827 0-9.428 7.646-17.075 17.063-17.075h20.47c9.416 0 17.075 7.634 17.075 17.075 0 2.962-0.819 5.72-2.167 8.152 68.275 3.348 122.678 60.496 122.678 130.709v332.342c-0.879-0.024-1.734-0.157-2.637-0.157h-593.677zM388.046 345.6c0-9.416-7.634-17.063-17.063-17.063s-17.063 7.634-17.063 17.063v86.445c0 9.416 7.634 17.063 17.063 17.063 9.416 0 17.063-7.646 17.063-17.063v-86.445zM688.984 890.365h-353.969c-71.225 0-128.963-58.666-128.963-131.046v-215.601c4.768 1.228 10.030 1.963 15.57 1.963h593.701c0.903 0 1.758-0.132 2.637-0.169v213.807c0 72.381-57.738 131.046-128.975 131.046zM388.046 609.439c0-9.428-7.634-17.063-17.063-17.063s-17.063 7.634-17.063 17.063v86.445c0 9.428 7.634 17.063 17.063 17.063 9.416 0 17.063-7.634 17.063-17.063v-86.445z" />
<glyph unicode="&#xe940;" glyph-name="fridge-lite" d="M350.493 754.644c-10.898 0-19.748-8.826-19.748-19.748v-100.065c0-10.898 8.838-19.748 19.748-19.748s19.76 8.838 19.76 19.748v100.065c-0.012 10.922-8.863 19.748-19.76 19.748zM350.493 309.709c10.91 0 19.76 8.851 19.76 19.76v100.053c0 10.91-8.851 19.772-19.76 19.772s-19.748-8.851-19.748-19.772v-100.053c0-10.922 8.838-19.76 19.748-19.76zM718.579 960h-409.725c-82.436 0-149.267-67.914-149.267-151.675v-691.858c0-81.292 62.989-147.449 142.054-151.302-1.541-2.806-2.493-5.985-2.493-9.416 0-10.922 8.838-19.748 19.748-19.748h23.71c10.898 0 19.748 8.826 19.748 19.748 0 3.275-0.879 6.334-2.288 9.055h307.372c-1.409-2.721-2.288-5.768-2.288-9.055 0-10.922 8.851-19.748 19.76-19.748h23.698c10.91 0 19.748 8.826 19.748 19.748 0 3.432-0.951 6.623-2.493 9.429 79.041 3.865 142.006 70.022 142.006 151.29v691.858c-0.024 83.773-66.831 151.675-149.291 151.675zM787.564 79.752v0c-0.012-20.603-16.726-37.317-37.329-37.317h-473.028c-20.615 0-37.329 16.714-37.329 37.317v408.955h547.673v-408.955zM787.564 573.31h-547.685v271.729c0 20.603 16.714 37.329 37.329 37.329h473.040c20.603 0 37.317-16.714 37.317-37.329v-271.729z" />
<glyph unicode="&#xe941;" glyph-name="garage" d="M136.718 801.198h750.576v-51.465h-750.576v51.465zM0.012 723.929h1023.988v-97.138h-1023.988v97.138zM64.144 577.036h61.881v-433.382h-61.881v433.382zM896.024 577.036h59.713v-433.382h-59.713v433.382zM694.15 261.816c-30.344 0-54.945-26.515-54.945-59.183 0-32.62 24.601-59.135 54.945-59.135s54.945 26.515 54.945 59.135c0.012 32.656-24.601 59.183-54.945 59.183zM352.114 261.816c-30.332 0-54.873-26.515-54.873-59.183 0-32.62 24.54-59.135 54.873-59.135 30.344 0 54.933 26.515 54.933 59.135 0 32.656-24.589 59.183-54.933 59.183zM826.521 314.485c-36.076 92.887-140.415 101.533-140.415 101.533s-37.136 110.167-164.883 146.941c-25.744 0.614-175.299 4.311-175.299 4.311s-116.344-27.009-125.423-195.552c-1.589-18.207-10.006-109.902-10.006-109.902s-3.998-22.975 29.080-43.518c2.36-3.022 12.21-5.358 27.334-7.104 4.082 47.154 40.471 84.097 85.217 84.097 46.143 0 83.471-39.159 85.675-88.251 55.571 0.566 115.778 2.023 171.12 3.769 3.865 47.323 40.315 84.506 85.241 84.506 42.903 0 78.149-33.872 84.639-78.137 15.618 0.698 24.649 1.144 24.649 1.144s53.211 12.969 23.071 96.163zM407.047 407.372h-123.34c0 0 32.078 92.911 61.676 96.138 29.67 3.263 61.676 0 61.676 0l-0.012-96.138zM447.253 407.372v97.571c0 0 0 0 58.208 0s118.415-97.583 118.415-97.583l-176.623 0.012z" />
<glyph unicode="&#xe942;" glyph-name="glass-0" d="M805.015 539.177c0 63.061-16.473 124.183-47.612 176.78l-5.057 8.549h-481.921l-5.069-8.549c-31.139-52.609-47.588-113.731-47.588-176.78 0-167.098 115.429-305.021 262.996-321.963v-224.548h-137.103c-15.63 0-28.309-12.692-28.309-28.345 0-15.618 12.68-28.309 28.309-28.309h335.437c15.654 0 28.333 12.692 28.333 28.309 0 15.654-12.68 28.333-28.333 28.345h-137.079v224.548c147.555 16.942 262.996 154.876 262.996 321.963zM255.759 583.381c5.178 37.581 16.858 73.645 34.751 106.265h441.775c24.817-45.264 37.846-97.066 37.846-150.481 0-1.12-0.060-2.216-0.072-3.323-33.547-16.28-109.143-64.409-172.409-79.678-84.23-20.326-162.607-5.804-226.523 55.788-44.505 42.891-91.129 63.097-115.369 71.43zM592.28 767.663c0 0 39.411 205.727 140.896 191.639 101.449-14.1 42.253-123.978-140.896-191.639zM549.256 754.201c0 0-81.014 91.792-38.207 133.684 42.735 41.856 72.429-24.769 38.207-133.684z" />
<glyph unicode="&#xe943;" glyph-name="glass-1" d="M716.704 40.507h-169.904v300.156c171.156 20.976 304.334 181.837 304.334 377.305 0 76.836-20.603 148.338-55.968 208.099h-572.677c-35.378-59.749-55.968-131.263-55.968-208.099 0-195.456 133.202-356.353 304.346-377.305v-300.156h-169.928c-19.375 0-35.089-15.666-35.089-35.065 0-19.387 15.714-35.101 35.089-35.101h415.765c19.363 0 35.077 15.714 35.077 35.101 0.024 19.363-15.714 35.065-35.077 35.065zM542.874 486.075c-6.153-2.107-13.799-4.744-22.722-7.068-8.899-2.926-19.122-3.986-30.525-4.768-11.367-0.421-24.059-2.107-37.34-0.421-13.258 1.987-27.575 3.793-42 7.731-7.213 2.444-14.305 5.322-21.53 8.2-7.189 3.046-14.931 5.383-21.41 10.139-13.474 8.573-27.671 17.051-38.809 28.827-5.611 5.84-11.584 11.355-16.677 17.364-4.841 6.262-9.115 12.884-13.51 19.206-4.792 6.237-7.863 13.125-10.958 19.832-3.010 6.719-6.526 13.209-8.549 20.013-4.082 13.426-7.875 26.371-8.983 38.954-1.915 12.403-1.698 24.251-1.313 34.968 1.349 21.59 5.96 38.906 10.693 50.718 4.359 11.789 8.658 18.038 8.658 18.038s3.179-6.394 8.694-17.508c5.298-10.837 12.993-25.829 21.699-42.506 4.612-8.321 9.031-17.147 14.594-25.901 4.672-9.127 11.223-17.568 16.605-26.636 6.575-8.309 12.234-17.484 19.363-25.323 3.504-4.046 7.189-7.887 10.356-12.041 3.528-4.010 7.755-7.201 11.475-10.885 6.695-8.248 16.304-13.342 24.023-20.519 8.357-6.514 18.074-11.259 26.563-17.713 9.308-5.106 19.086-9.597 28.153-14.871 4.431-3.034 9.513-4.239 14.161-6.346 4.72-2.023 9.296-4.034 13.715-5.96 8.862-4.154 17.328-8.284 25.263-10.729 7.815-2.818 14.763-5.948 20.615-8.333 11.668-4.949 18.712-8.766 18.712-8.766s-6.647-3.42-19.013-7.694z" />
<glyph unicode="&#xe944;" glyph-name="glass-2" d="M313.967 703.639c0 0 2.745-5.864 7.538-16.148 4.588-9.982 11.259-23.758 18.833-39.098 4.010-7.682 7.851-15.81 12.668-23.842 4.082-8.405 9.754-16.208 14.45-24.576 5.696-7.658 10.596-16.075 16.798-23.324 3.022-3.673 6.262-7.189 9.007-11.054 3.046-3.624 6.731-6.611 9.982-10.030 5.84-7.538 14.137-12.222 20.868-18.821 7.225-5.985 15.642-10.392 23.023-16.328 8.14-4.696 16.605-8.826 24.468-13.691 3.793-2.782 8.224-3.938 12.258-5.852 4.13-1.89 8.116-3.733 11.921-5.479 7.719-3.853 15.028-7.658 21.891-9.898 6.803-2.601 12.824-5.431 17.894-7.682 10.163-4.528 16.292-8.044 16.292-8.044s-5.768-3.155-16.497-7.092c-5.358-1.903-11.993-4.419-19.724-6.563-7.731-2.673-16.605-3.649-26.515-4.335-9.85-0.433-20.868-1.927-32.403-0.397-11.487 1.794-23.962 3.468-36.497 7.092-6.201 2.24-12.391 4.865-18.676 7.562-6.274 2.794-12.969 4.949-18.592 9.344-11.704 7.863-24.059 15.726-33.692 26.527-4.853 5.322-10.067 10.428-14.486 16.003-4.178 5.732-7.875 11.837-11.74 17.653-4.142 5.744-6.815 12.090-9.501 18.291-2.625 6.201-5.684 12.138-7.405 18.351-3.564 12.451-6.815 24.384-7.803 35.932-1.65 11.427-1.493 22.313-1.144 32.223 1.192 19.82 5.178 35.847 9.284 46.733 3.769 10.789 7.502 16.545 7.502 16.545zM871.713 697.257c0 76.92-20.109 151.541-58.136 215.758l-7.634 12.86h-586.897l-7.622-12.86c-38.015-64.229-58.112-138.837-58.112-215.758 0-204.354 141.486-372.994 322.264-393.428v-265.428h-165.268c-18.845 0-34.113-15.281-34.113-34.089 0-18.905 15.293-34.161 34.113-34.161h404.398c18.857 0 34.089 15.293 34.089 34.161 0 18.821-15.268 34.089-34.089 34.089h-165.292v265.416c180.789 20.41 322.276 189.074 322.3 393.44zM205.824 697.269c0 62.423 15.004 122.955 43.518 176.093h526.305c28.538-53.127 43.53-113.671 43.53-176.093 0-189.146-137.585-342.987-306.682-342.987-169.085 0-306.67 153.841-306.67 342.987z" />
<glyph unicode="&#xe945;" glyph-name="glass-3" d="M230.207 239.756c0 0 0 0 0 0-14.173 0-28.43 1.457-42.362 4.275-125.002 25.468-203.897 158.164-175.865 295.761 9.898 48.563 32.175 93.068 64.421 128.698l6.478 7.141 370.417-75.439 3.155-9.103c15.738-45.42 18.821-95.091 8.935-143.63-24.528-120.342-123.424-207.702-235.18-207.702zM95.247 638.603c-24.829-29.863-42.085-66.167-50.116-105.567-24.312-119.318 42.735-234.109 149.47-255.868 11.728-2.372 23.697-3.576 35.618-3.576 95.741-0.024 180.705 75.945 202.030 180.633 8.008 39.375 6.334 79.521-4.829 116.717l-332.174 67.661zM168.304 267.047l46.619-9.501-37.64-184.695-46.619 9.501 37.64 184.695zM105.856 499.080c0 0 0.674-2.77 1.866-7.694 1.12-4.744 2.794-11.331 4.732-18.688 1.072-3.673 2.023-7.562 3.396-11.5 1.024-4.022 2.806-7.923 4.106-11.969 1.806-3.853 3.203-7.947 5.25-11.632 0.999-1.878 2.083-3.697 2.926-5.647 1.011-1.83 2.336-3.48 3.456-5.238 1.878-3.805 5.069-6.587 7.405-10.067 2.625-3.251 5.9-5.9 8.586-9.127 3.131-2.77 6.442-5.31 9.44-8.14 1.409-1.553 3.227-2.444 4.817-3.649 1.626-1.204 3.215-2.324 4.72-3.432 3.022-2.348 5.852-4.684 8.646-6.262 2.733-1.722 5.106-3.504 7.129-4.913 4.010-2.89 6.358-4.961 6.358-4.961s-2.794-0.843-7.815-1.626c-2.505-0.349-5.599-0.843-9.163-1.108-3.612-0.446-7.538-0.12-11.933 0.446-4.323 0.71-9.26 1.036-14.137 2.733-4.841 1.806-10.127 3.624-15.268 6.322-2.505 1.505-4.961 3.227-7.466 4.937-2.468 1.758-5.202 3.311-7.273 5.72-4.395 4.467-9.067 8.983-12.306 14.534-1.638 2.757-3.456 5.431-4.877 8.26-1.325 2.866-2.396 5.852-3.54 8.73-1.288 2.866-1.89 5.852-2.517 8.79-0.59 2.938-1.397 5.804-1.589 8.67-0.458 5.72-0.831 11.198-0.217 16.316 0.289 5.13 1.325 9.85 2.348 14.1 2.288 8.513 5.443 15.136 8.188 19.507 2.601 4.419 4.732 6.587 4.732 6.587zM298.747 25.925c-2.42-11.897-14.028-19.591-25.913-17.171l-255.217 51.995c-11.897 2.396-19.579 14.016-17.159 25.913v0c2.432 11.897 14.040 19.567 25.937 17.171l255.205-51.995c11.897-2.396 19.579-14.016 17.147-25.913v0zM750.745 435.862c0 0 0 0 0 0-103.532 0-197.118 72.056-232.881 179.369-15.666 47.010-18.58 96.704-8.429 143.678l2.035 9.428 358.605 119.535 7.285-6.31c36.305-31.488 63.771-72.983 79.461-120.005 21.41-64.241 18.941-132.263-6.96-191.518-26.154-59.858-73.019-103.628-131.962-123.28-21.711-7.225-44.3-10.897-67.155-10.897zM540.659 742.424c-6.599-38.28-3.432-78.341 9.284-116.5 30.657-91.996 113.225-156.261 200.778-156.261 0.012 0 0.012 0 0.012 0 19.218 0 38.207 3.083 56.462 9.163 49.731 16.569 89.383 53.777 111.648 104.748 22.554 51.585 24.625 110.986 5.864 167.279-12.728 38.159-34.234 72.116-62.471 98.763l-321.577-107.192zM789.41 456.988l45.119 15.054 59.655-178.796-45.119-15.054-59.655 178.796zM619.518 626.851c0 0 1.987-2.083 5.443-5.756 3.335-3.564 8.104-8.429 13.438-13.836 2.757-2.661 5.527-5.551 8.694-8.284 2.878-2.962 6.37-5.455 9.525-8.309 3.48-2.444 6.743-5.286 10.356-7.466 1.806-1.132 3.661-2.167 5.346-3.42 1.794-1.084 3.769-1.842 5.611-2.818 3.528-2.372 7.694-3.191 11.451-5.021 3.889-1.505 8.056-2.179 11.993-3.649 4.106-0.831 8.236-1.385 12.234-2.324 2.011-0.65 4.034-0.506 6.009-0.759 1.999-0.217 3.938-0.433 5.792-0.626 3.781-0.53 7.405-1.12 10.621-1.096 3.227-0.132 6.177-0.494 8.622-0.71 4.913-0.494 7.995-1.108 7.995-1.108s-2.011-2.143-5.96-5.298c-1.999-1.553-4.443-3.528-7.393-5.527-2.89-2.216-6.478-3.889-10.56-5.563-4.106-1.553-8.537-3.733-13.619-4.72-5.094-0.843-10.596-1.903-16.376-2.131-2.914 0.060-5.9 0.313-8.923 0.554-3.034 0.313-6.165 0.289-9.151 1.337-6.057 1.674-12.342 3.239-17.93 6.454-2.794 1.553-5.708 2.962-8.333 4.708-2.589 1.83-4.997 3.865-7.43 5.792-2.553 1.83-4.576 4.118-6.575 6.358-1.975 2.252-4.106 4.323-5.72 6.719-3.239 4.732-6.298 9.308-8.321 14.040-2.3 4.588-3.769 9.2-5.009 13.402-2.288 8.537-2.854 15.834-2.649 21 0.048 5.106 0.819 8.056 0.819 8.056zM1022.868 313.124c3.829-11.524-2.384-23.962-13.908-27.804l-247.089-82.363c-11.512-3.829-23.962 2.372-27.804 13.896v0c-3.841 11.524 2.372 23.962 13.896 27.828l247.089 82.339c11.524 3.865 23.986-2.372 27.816-13.896v0z" />
<glyph unicode="&#xe946;" glyph-name="golf" d="M512-29.875c-222.73 0-397.185 78.871-397.185 179.525 0 100.666 174.456 179.537 397.185 179.537 222.742 0 397.197-78.871 397.197-179.537 0-100.69-174.468-179.525-397.197-179.525zM512 308.368c-204.041 0-376.39-72.67-376.39-158.718 0-86.036 172.348-158.694 376.39-158.694 204.017 0 376.402 72.658 376.402 158.694 0 86.048-172.385 158.718-376.402 158.718zM635.147 96.933c-24.3 0-44.035 19.772-44.035 44.047 0 24.3 19.748 44.059 44.035 44.059s44.047-19.772 44.047-44.059c0-24.287-19.772-44.047-44.047-44.047zM635.147 171.518c-16.822 0-30.537-13.715-30.537-30.549 0-16.846 13.715-30.549 30.537-30.549 16.846 0 30.549 13.703 30.549 30.549 0 16.834-13.703 30.549-30.549 30.549zM406.277 155.406l1.65 378.449 411.093 182.126-412.827 178.080v17.051c0 8.152-6.599 14.739-14.751 14.739-8.128 0-14.739-6.587-14.739-14.739v-755.369c-25.456-3.119-44.433-14.69-44.433-28.514 0-16.244 26.021-29.429 58.148-29.429 32.114 0 58.148 13.197 58.148 29.429-0.012 13.45-17.942 24.673-42.289 28.177z" />
<glyph unicode="&#xe947;" glyph-name="grid" d="M1023.988 1.264c0-17.869-14.402-32.259-32.259-32.259h-225.583c-17.845 0-32.259 14.377-32.259 32.259v180.079c0 17.821 14.426 32.259 32.259 32.259h225.583c17.809 0 32.259-14.426 32.259-32.259v-180.079zM654.245 1.264c0-17.869-14.474-32.259-32.307-32.259h-225.595c-17.785 0-32.247 14.377-32.247 32.259v180.079c0 17.821 14.462 32.259 32.247 32.259h225.608c17.821 0 32.307-14.426 32.307-32.259v-180.079h-0.012zM290.173 1.264c0-17.869-14.462-32.259-32.307-32.259h-225.608c-17.785 0.012-32.259 14.389-32.259 32.259v180.079c0 17.821 14.462 32.259 32.259 32.259h225.62c17.821 0 32.307-14.426 32.307-32.259v-180.079h-0.012zM1023.988 365.516c0-17.809-14.402-32.271-32.259-32.271h-225.583c-17.845 0-32.259 14.45-32.259 32.271v180.091c0 17.821 14.426 32.283 32.259 32.283h225.583c17.809 0 32.259-14.438 32.259-32.283v-180.091zM654.245 365.516c0-17.809-14.474-32.271-32.307-32.271h-225.595c-17.785 0-32.247 14.45-32.247 32.271v180.091c0 17.821 14.462 32.283 32.247 32.283h225.608c17.821 0 32.307-14.438 32.307-32.283v-180.091h-0.012zM290.173 365.516c0-17.809-14.462-32.271-32.307-32.271h-225.608c-17.785 0-32.259 14.45-32.259 32.271v180.091c0 17.821 14.462 32.283 32.259 32.283h225.62c17.821 0 32.307-14.438 32.307-32.283v-180.091h-0.012zM1023.988 718.377c0-17.809-14.402-32.259-32.259-32.259h-225.583c-17.845 0-32.259 14.462-32.259 32.259v180.127c0 17.797 14.426 32.247 32.259 32.247h225.583c17.809 0 32.259-14.462 32.259-32.247v-180.127zM654.245 718.377c0-17.809-14.474-32.259-32.307-32.259h-225.595c-17.785 0-32.247 14.462-32.247 32.259v180.127c0 17.797 14.462 32.247 32.247 32.247h225.608c17.821 0 32.307-14.462 32.307-32.247v-180.127h-0.012zM290.173 718.377c0-17.809-14.462-32.259-32.307-32.259h-225.608c-17.785-0.012-32.259 14.45-32.259 32.259v180.127c0 17.797 14.45 32.247 32.259 32.247h225.62c17.821 0 32.307-14.462 32.307-32.247v-180.127h-0.012z" />
<glyph unicode="&#xe948;" glyph-name="grid-o" d="M975.401-14.703h-217.648c-27.093 0-49.165 21.735-49.165 48.43v169.422c0 26.672 22.072 48.406 49.165 48.406h217.648c27.105 0 49.153-21.711 49.153-48.406v-169.434c0-26.684-22.048-48.418-49.153-48.418zM757.753 215.408c-7.213 0-13.029-5.491-13.029-12.258v-169.434c0-6.779 5.816-12.294 13.029-12.294h217.648c7.177 0 13.017 5.515 13.017 12.294v169.434c0 6.767-5.84 12.258-13.017 12.258h-217.648zM618.651-14.703h-217.648c-27.117 0-49.165 21.735-49.165 48.43v169.422c0 26.672 22.060 48.406 49.165 48.406h217.66c27.141 0 49.201-21.711 49.201-48.406v-169.434c-0.060-26.684-22.072-48.418-49.213-48.418zM400.978 215.408c-7.201 0-13.053-5.491-13.053-12.258v-169.434c0-6.779 5.864-12.294 13.053-12.294h217.672c7.177 0 13.041 5.515 13.041 12.294v169.434c0 6.767-5.864 12.258-13.041 12.258h-217.672zM267.403-14.703h-217.672c-27.093 0-49.165 21.735-49.165 48.43v169.422c0 26.672 22.072 48.406 49.165 48.406h217.672c27.117 0 49.189-21.711 49.189-48.406v-169.434c0-26.684-22.048-48.418-49.189-48.418zM49.731 215.408c-7.189 0-13.041-5.491-13.041-12.258v-169.434c0-6.779 5.852-12.294 13.041-12.294h217.672c7.213 0 13.065 5.515 13.065 12.294v169.434c0 6.767-5.852 12.258-13.065 12.258h-217.672zM975.401 328.020h-217.648c-27.093 0-49.165 21.735-49.165 48.43v169.434c0 26.696 22.072 48.418 49.165 48.418h217.648c27.105 0 49.153-21.723 49.153-48.418v-169.446c0-26.684-22.048-48.418-49.153-48.418zM757.753 558.191c-7.213 0-13.029-5.515-13.029-12.294v-169.446c0-6.779 5.816-12.294 13.029-12.294h217.648c7.177 0 13.017 5.515 13.017 12.294v169.434c0 6.779-5.84 12.294-13.017 12.294l-217.648 0.012zM618.651 328.020h-217.648c-27.117 0-49.165 21.735-49.165 48.43v169.434c0 26.696 22.060 48.418 49.165 48.418h217.66c27.141 0 49.201-21.723 49.201-48.418v-169.446c-0.060-26.684-22.072-48.418-49.213-48.418zM400.978 558.191c-7.201 0-13.053-5.515-13.053-12.294v-169.446c0-6.779 5.864-12.294 13.053-12.294h217.672c7.177 0 13.041 5.515 13.041 12.294v169.434c0 6.779-5.864 12.294-13.041 12.294l-217.672 0.012zM267.403 328.020h-217.672c-27.093 0-49.165 21.735-49.165 48.43v169.434c0 26.696 22.072 48.418 49.165 48.418h217.672c27.117 0 49.189-21.723 49.189-48.418v-169.446c0-26.684-22.048-48.418-49.189-48.418zM49.731 558.191c-7.189 0-13.041-5.515-13.041-12.294v-169.446c0-6.779 5.852-12.294 13.041-12.294h217.672c7.213 0 13.065 5.515 13.065 12.294v169.434c0 6.779-5.852 12.294-13.065 12.294l-217.672 0.012zM975.401 660.037h-217.648c-27.093 0-49.165 21.711-49.165 48.406v169.471c0 26.708 22.072 48.406 49.165 48.406h217.648c27.105 0 49.153-21.699 49.153-48.406v-169.471c0-26.684-22.048-48.406-49.153-48.406zM757.753 890.22c-7.213 0-13.029-5.515-13.029-12.294v-169.471c0-6.779 5.816-12.282 13.029-12.282h217.648c7.177 0 13.017 5.491 13.017 12.282v169.471c0 6.779-5.84 12.294-13.017 12.294h-217.648zM618.651 660.037h-217.648c-27.117 0-49.165 21.711-49.165 48.406v169.471c0 26.708 22.060 48.406 49.165 48.406h217.66c27.141 0 49.201-21.699 49.201-48.406v-169.471c-0.060-26.684-22.072-48.406-49.213-48.406zM400.978 890.22c-7.201 0-13.053-5.515-13.053-12.294v-169.471c0-6.779 5.864-12.282 13.053-12.282h217.672c7.177 0 13.041 5.491 13.041 12.282v169.471c0 6.779-5.864 12.294-13.041 12.294h-217.672zM267.403 660.037h-217.672c-27.093 0-49.165 21.711-49.165 48.406v169.471c0 26.708 22.072 48.406 49.165 48.406h217.672c27.117 0 49.189-21.699 49.189-48.406v-169.471c0-26.684-22.048-48.406-49.189-48.406zM49.731 890.22c-7.189 0-13.041-5.515-13.041-12.294v-169.471c0-6.779 5.852-12.282 13.041-12.282h217.672c7.213 0 13.065 5.491 13.065 12.282v169.471c0 6.779-5.852 12.294-13.065 12.294h-217.672z" />
<glyph unicode="&#xe949;" glyph-name="handicap" d="M538.744 846.57c0-43.433-35.209-78.642-78.642-78.642s-78.642 35.209-78.642 78.642c0 43.433 35.209 78.642 78.642 78.642s78.642-35.209 78.642-78.642zM921.492 229.798l-107.758 216.733c-13.137 26.419-41.242 39.941-66.553 33.716-4.949 1.011-10.103 1.577-15.449 1.481l-176.443-2.733-4.901 54.62h152.492c20.82 0 37.702 16.882 37.702 37.702s-16.87 37.702-37.702 37.702h-159.259l-6.551 73.163c-3.010 33.608-32.692 58.389-66.288 55.378l-35.137-3.143c-33.595-3.010-58.389-32.68-55.378-66.276l22.987-256.638c1.252-13.92 7.141-26.335 15.931-35.871 9.44-18.652 31.476-31.536 56.968-31.127l257.65 3.998c1.288 0.012 2.577 0.132 3.853 0.229l83.868-168.616c14.992-30.176 49.538-43.53 77.161-29.802 27.599 13.715 37.822 49.322 22.806 79.485zM754.971 173.179c-44.529-92.201-138.922-155.792-248.185-155.792-152.131 0-275.447 123.316-275.447 275.447 0 100.028 53.331 187.581 133.081 235.831l-35.715 32.512c-86.758-57.702-143.979-156.309-143.979-268.33 0-177.863 144.196-322.047 322.071-322.047 122.834 0 229.557 68.744 283.888 169.868l-35.715 32.512z" />
<glyph unicode="&#xe94a;" glyph-name="heart" d="M737.355 895.916c-90.19 0-170.169-43.494-220.237-110.624-49.984 67.155-130.011 110.624-220.177 110.624-151.541 0-283.539-123.171-274.411-274.423 15.473-256.71 470.277-631.186 495.72-637.845 29.875 2.216 484.678 392.188 493.529 637.845 5.479 151.469-122.834 274.423-274.423 274.423z" />
<glyph unicode="&#xe94b;" glyph-name="heart-lite" d="M509.267-11.969l-6.743 1.758c-35.402 9.236-469.434 364.674-484.967 621.685-4.443 74.139 22.036 145.713 74.584 201.513 56.366 59.906 136.056 94.236 218.539 94.236 75.114 0 147.423-29.333 201.416-80.256 54.066 50.923 126.374 80.256 201.428 80.256 80.364 0 158.392-33.126 214.132-90.852 53.693-55.703 81.821-128.108 79.088-203.861-8.718-240.996-436.248-619.975-490.494-624.009l-6.984-0.47zM310.692 822.945c-59.388 0-116.669-24.697-157.176-67.721-36.473-38.713-54.885-87.95-51.838-138.633 11.295-187.436 330.103-473.588 412.719-536.48 84.783 62.025 401.653 357.93 408.083 535.433 1.89 52.705-17.809 103.243-55.487 142.317-39.929 41.362-95.813 65.096-153.456 65.096-66.625 0-127.711-30.694-167.604-84.254l-33.812-45.336-33.776 45.36c-39.893 53.524-101.015 84.217-167.652 84.217z" />
<glyph unicode="&#xe94c;" glyph-name="home" d="M955.894 446.989l-448.71 419.137-439.113-419.137c-10.356-10.187-16.882-24.312-16.882-40.050 0-30.645 24.492-55.487 54.692-55.487 15.244 0 29.008 6.346 38.93 16.533h0.024l362.313 347.611 370.622-345.877c9.922-11.174 24.167-18.291 40.339-18.291 30.152 0 54.68 24.829 54.68 55.487 0 15.762-6.49 29.887-16.894 40.074zM782.847 833.999h-120.342v-81.412l120.342-104.772zM171.602 325.816v-289.583h239.84v318.952h169.085v-318.952h266.247v289.583l-341.518 317.736z" />
<glyph unicode="&#xe94d;" glyph-name="info" d="M368.683 438.764l-32.44 25.106c49.033 53.813 93.742 92.213 134.177 115.116 40.423 22.722 74.813 34.113 103.255 34.113 15.618 0 27.695-3.36 35.968-10.295 8.333-6.852 12.403-16.16 12.403-27.924 0-14.281-15.834-74.56-47.648-180.982-51.85-174.058-77.715-279.132-77.715-314.882 0-6.876 1.626-12.656 5.166-17.328 3.396-4.612 6.996-6.84 10.934-6.84 15.774 0 55.968 30.272 120.763 91.214l28.586-28.081c-67.107-63.133-116.151-103.652-147.206-121.341-30.669-17.617-56.077-26.503-75.596-26.503-17.255 0-30.838 5.443-40.917 16.244-10.006 10.705-15.040 25.672-15.040 44.926 0 61.194 36.786 211.037 110.287 449.409 3.468 11.319 5.298 21.373 5.298 30.224 0 9.741-4.624 14.678-13.39 14.678-9.657 0-20.916-3.95-33.427-11.752-12.535-7.923-40.423-32.909-83.459-75.102zM657.809 925.851c15.148 0 27.599-5.094 37.461-15.16 9.814-10.079 14.715-22.879 14.715-38.617 0-21.614-7.49-40.592-22.373-57.004-14.979-16.388-31.777-24.54-50.393-24.54-14.763 0-27.093 5.045-36.847 15.341-9.766 10.319-14.775 23.818-14.775 40.543 0 21.927 7.141 40.724 21.373 56.221 14.281 15.437 31.187 23.216 50.839 23.216z" />
<glyph unicode="&#xe94e;" glyph-name="kitchen" d="M575.338 862.585c0.626 2.444 0.951 4.985 0.891 7.598-0.397 16.449-14.799 29.441-32.006 28.996-16.4-0.409-29.55-12.764-30.501-28.093-187.786 18.207-348.972-36.389-383.326-126.868l758.62-89.708c-11.68 90.864-141.33 177.008-313.678 208.075zM980.964 620.216h-937.928c-14.341 0-25.985-11.656-25.985-25.997v-4.564c0-14.353 11.632-25.961 25.985-25.961h83.037c-0.361-1.77-0.542-3.612-0.542-5.503v-337.316c0-14.799 11.632-26.84 25.985-26.84h716.403c14.341 0 25.973 12.041 25.973 26.84v337.303c0 1.89-0.253 3.733-0.566 5.503h87.613c14.305 0 25.973 11.608 25.973 25.961v4.564c0.048 14.365-11.62 26.009-25.949 26.009zM379.882 236.758c-2.842-0.361-6.996-1.108-12.403-1.71-5.346-0.783-11.897-0.963-19.495-1.144-7.634-0.446-16.184 0.397-25.696 1.060-9.32 1.3-19.688 2.661-30.212 5.84-2.685 0.722-5.358 1.421-8.104 2.288-2.625 1.011-5.286 2.023-8.032 3.034-2.709 1.024-5.503 2.023-8.188 3.239-2.649 1.3-5.346 2.685-8.056 3.998-10.801 5.37-21.036 12.571-30.537 20.627-9.067 8.357-17.617 17.617-24.251 27.767-3.552 4.937-6.237 10.259-9.139 15.425-1.445 2.661-2.505 5.31-3.697 7.995-1.144 2.673-2.36 5.322-3.251 8.044-0.927 2.697-1.878 5.346-2.782 8.032-0.855 2.709-1.469 5.358-2.216 8.044-1.517 5.334-2.312 10.657-3.275 15.846-1.469 10.452-2.204 20.543-1.939 30.055 0.084 9.489 1.048 18.375 2.252 26.515 1.361 8.092 2.962 15.485 4.792 21.915 1.746 6.43 3.805 11.945 5.527 16.4 1.674 4.503 3.396 7.959 4.479 10.295 1.18 2.312 1.903 3.528 1.903 3.528s0.361-5.346 1.060-14.763c0.747-9.236 2.023-22.349 4.178-37.665 1.108-7.61 2.36-15.846 4.178-24.384-1.469 7.767-0.385-1.842 6.514-26.335 2.866-8.911 5.936-17.99 9.922-26.696 4.046-8.766 8.429-17.436 14.064-25.323 5.118-8.26 11.789-15.449 18.351-22.493 7.129-6.611 14.329-13.029 22.469-18.243 2.023-1.337 3.998-2.649 5.973-3.986 2.107-1.216 4.19-2.408 6.249-3.552 2.071-1.18 4.106-2.348 6.117-3.516 2.179-0.987 4.299-1.987 6.358-2.974 4.178-2.023 8.248-4.082 12.463-5.563 4.178-1.626 8.188-3.396 12.174-4.768 8.068-2.529 15.509-5.443 22.397-7.068 6.852-1.818 12.884-3.938 17.966-4.961 5.081-1.096 9.139-2.3 11.885-2.986 2.757-0.759 4.263-1.192 4.263-1.192s-1.433-0.108-4.263-0.626zM262.659 134.695c0 0-32.945-25.094-43.156-66.444-8.622-34.884 12.294-63.145 40.074-63.771 27.804-0.662 54.234 27.37 46.793 64.072-7.369 36.389-43.71 66.143-43.71 66.143zM379.063 134.695c0 0-32.957-25.094-43.144-66.444-8.646-34.884 12.282-63.145 40.050-63.771 27.816-0.662 54.246 27.37 46.805 64.072-7.393 36.389-43.71 66.143-43.71 66.143zM502.981 134.695c0 0-32.945-25.094-43.144-66.444-8.622-34.884 12.282-63.145 40.062-63.771 27.779-0.686 54.259 27.37 46.757 64.072-7.381 36.389-43.674 66.143-43.674 66.143zM630.439 134.695c0 0-32.897-25.094-43.12-66.444-8.61-34.884 12.294-63.145 40.074-63.771 27.804-0.686 54.246 27.37 46.817 64.072-7.405 36.389-43.77 66.143-43.77 66.143zM754.405 134.695c0 0-32.921-25.094-43.144-66.444-8.658-34.884 12.282-63.145 40.038-63.771 27.804-0.686 54.259 27.37 46.817 64.072-7.405 36.389-43.71 66.143-43.71 66.143z" />
<glyph unicode="&#xe94f;" glyph-name="land" d="M807.773 925.863h165.678v-151.962h-165.678v151.962zM203.331 925.863h532.169v-151.962h-532.169v151.962zM807.773 701.435h165.678v-535.685h-165.678v535.685zM807.773 71.574h-72.248v629.861h-611.847v224.427h-68.78v-955.737h918.554v101.449z" />
<glyph unicode="&#xe950;" glyph-name="list" d="M51.212 868.522h921.6v-161.331h-921.6v161.331zM51.212 530.989h921.6v-161.367h-921.6v161.367zM51.212 196.805h921.6v-161.306h-921.6v161.306z" />
<glyph unicode="&#xe951;" glyph-name="list-lite" d="M972.8 716.788c0-10.199-8.284-18.484-18.471-18.484h-884.633c-10.211 0-18.484 8.284-18.484 18.484v28.249c0 10.175 8.284 18.484 18.484 18.484h884.633c10.199 0 18.471-8.284 18.471-18.484v-28.249zM972.8 137.404c0-10.247-8.284-18.52-18.471-18.52h-884.633c-10.211 0-18.484 8.284-18.484 18.52v28.201c0 10.247 8.284 18.52 18.484 18.52h884.633c10.199 0 18.471-8.284 18.471-18.52v-28.201zM972.8 335.594c0-10.187-8.284-18.471-18.471-18.471h-884.633c-10.211 0-18.484 8.284-18.484 18.471v28.261c0 10.187 8.284 18.484 18.484 18.484h884.633c10.199 0 18.471-8.297 18.471-18.484v-28.261zM972.8 527.281c0-10.235-8.284-18.496-18.471-18.496h-884.633c-10.211 0-18.484 8.248-18.484 18.496v28.273c0 10.187 8.284 18.471 18.484 18.471h884.633c10.199 0 18.471-8.272 18.471-18.471v-28.273z" />
<glyph unicode="&#xe952;" glyph-name="list-o" d="M989.863 690.092h-955.725v194.89h955.725v-194.89zM67.853 723.808h888.294v127.458h-888.294v-127.458zM989.863 352.861h-955.725v194.902h955.725v-194.902zM67.853 386.577h888.294v127.482h-888.294v-127.482zM989.863 19.013h-955.725v194.914h955.725v-194.914zM67.853 52.729h888.294v127.446h-888.294v-127.446z" />
<glyph unicode="&#xe953;" glyph-name="list-radius" d="M989.863 727.24c0-28.899-23.433-52.344-52.332-52.344h-851.025c-28.923 0-52.368 23.445-52.368 52.344v43.036c0 28.899 23.445 52.356 52.368 52.356h850.989c28.899 0 52.356-23.445 52.356-52.356l0.012-43.036zM989.863 431.624c0-28.911-23.433-52.38-52.332-52.38h-851.025c-28.923 0-52.368 23.457-52.368 52.38v43c0 28.899 23.445 52.368 52.368 52.368h850.989c28.899 0 52.356-23.421 52.356-52.368l0.012-43zM989.863 135.983c0-28.923-23.433-52.356-52.332-52.356h-851.025c-28.923 0-52.368 23.421-52.368 52.356v43.012c0 28.923 23.445 52.356 52.368 52.356h850.989c28.899 0 52.356-23.421 52.356-52.356l0.012-43.012z" />
<glyph unicode="&#xe954;" glyph-name="list-radius-o" d="M922.503 649.862h-821.006c-37.136 0-67.36 30.2-67.36 67.287v41.459c0 37.087 30.224 67.263 67.36 67.263h821.006c37.16 0 67.372-30.188 67.372-67.263v-41.459c0-37.112-30.212-67.287-67.372-67.287zM101.497 792.131c-18.556 0-33.656-15.040-33.656-33.559v-41.434c0-18.52 15.1-33.571 33.656-33.571h821.006c18.556 0 33.644 15.052 33.644 33.571v41.434c0 18.52-15.088 33.559-33.644 33.559h-821.006zM922.503 365.095h-821.006c-37.136 0-67.36 30.212-67.36 67.311v41.434c0 37.112 30.224 67.287 67.36 67.287h821.006c37.16 0 67.372-30.176 67.372-67.287v-41.434c0-37.1-30.212-67.311-67.372-67.311zM101.497 507.412c-18.556 0-33.656-15.052-33.656-33.571v-41.459c0-18.508 15.1-33.571 33.656-33.571h821.006c18.556 0 33.644 15.064 33.644 33.571v41.459c0 18.52-15.088 33.571-33.644 33.571h-821.006zM922.503 80.376h-821.006c-37.136 0-67.36 30.212-67.36 67.311v41.41c0 37.075 30.224 67.287 67.36 67.287h821.006c37.16 0 67.372-30.212 67.372-67.287v-41.41c0-37.112-30.212-67.311-67.372-67.311zM101.497 222.669c-18.556 0-33.656-15.052-33.656-33.571v-41.41c0-18.52 15.1-33.583 33.656-33.583h821.006c18.556 0 33.644 15.064 33.644 33.583v41.41c0 18.52-15.088 33.571-33.644 33.571h-821.006z" />
<glyph unicode="&#xe955;" glyph-name="long-arrow-down" d="M487.592 933.75v-935.652l-167.351 144.099c-7.803 6.731-19.579 5.852-26.298-1.951s-5.828-19.591 1.963-26.298l201.344-173.396c3.203-2.733 7.056-4.142 10.982-4.395 5.118-0.662 10.476 0.735 14.654 4.419l199.333 175.66c7.743 6.815 8.489 18.604 1.674 26.347-6.791 7.719-18.58 8.417-26.298 1.65l-167.183-147.326v936.844c0 14.51-9.573 26.25-21.41 26.25s-21.41-11.74-21.41-26.25z" />
<glyph unicode="&#xe956;" glyph-name="long-arrow-left" d="M997.738 510.013h-935.652l144.099 167.339c6.731 7.803 5.852 19.579-1.951 26.298s-19.579 5.828-26.298-1.963l-173.396-201.344c-2.745-3.203-4.154-7.056-4.395-10.982-0.662-5.118 0.722-10.476 4.407-14.654l175.672-199.345c6.803-7.731 18.592-8.477 26.31-1.674 7.719 6.791 8.453 18.58 1.662 26.298l-147.302 167.195h936.856c14.51 0 26.25 9.585 26.25 21.41s-11.752 21.422-26.262 21.422z" />
<glyph unicode="&#xe957;" glyph-name="long-arrow-right" d="M26.25 450.685h935.652l-144.099-167.339c-6.731-7.803-5.852-19.579 1.951-26.298s19.567-5.828 26.298 1.963l173.396 201.344c2.733 3.203 4.142 7.056 4.371 10.982 0.662 5.118-0.71 10.476-4.395 14.654l-175.684 199.345c-6.791 7.719-18.58 8.477-26.298 1.662-7.743-6.791-8.465-18.58-1.674-26.298l147.314-167.183h-936.832c-14.51 0-26.25-9.585-26.25-21.422s11.74-21.41 26.25-21.41z" />
<glyph unicode="&#xe958;" glyph-name="long-arrow-up" d="M527.919-37.774v935.664l167.339-144.099c7.803-6.731 19.579-5.852 26.298 1.951s5.828 19.579-1.963 26.298l-201.344 173.384c-3.203 2.745-7.056 4.154-10.982 4.395-5.118 0.662-10.476-0.722-14.654-4.407l-199.357-175.672c-7.719-6.803-8.477-18.592-1.662-26.31 6.791-7.719 18.58-8.453 26.298-1.662l167.183 147.314v-936.868c0-14.486 9.585-26.226 21.422-26.226s21.422 11.752 21.422 26.238z" />
<glyph unicode="&#xe959;" glyph-name="map-0" d="M801.487 539.069h-0.048c11.524 32.427 18.134 67.119 18.134 103.351 0 175.383-147.254 317.568-328.899 317.568s-328.887-142.173-328.887-317.568c0-28.731 3.925-56.558 11.343-83.037 1.951-6.888 4.251-13.595 6.659-20.314h-0.217l0.518-0.951c9.284-25.889 21.903-50.309 37.461-72.67l273.123-529.46 272.268 528.316c16.027 22.734 28.755 47.684 38.231 74.091l0.313 0.674z" />
<glyph unicode="&#xe95a;" glyph-name="map-1" d="M503.294 959.988c-206.281 0-373.5-165.942-373.5-370.622 0-32.054 4.528-62.976 12.222-92.634-0.084-0.217-0.193-0.446-0.301-0.638-2.011-4.166 2.577-17.027 11.837-35.883 14.317-38.111 34.45-73.404 59.858-104.399 95.332-154.539 255.278-384.566 289.884-419.799 71.357 82.652 209.087 274.785 297.627 430.070 27.141 35.606 48.045 76.078 60.905 120.065 0.181 0.433 0.385 0.903 0.566 1.349 2.083 4.973 3.143 9.717 3.468 14.269 6.888 28.129 10.922 57.365 10.922 87.613 0 204.668-167.219 370.61-373.488 370.61zM677.629 406.505c-5.13-5.13-10.464-9.994-16.027-14.678-0.458-0.385-0.879-0.807-1.337-1.204-5.876-4.913-12.029-9.549-18.399-13.956-0.108-0.096-0.253-0.205-0.385-0.301-39.315-27.117-86.77-43.554-138.139-45.408-0.012 0-0.036 0-0.036 0-3.131-0.108-6.189-0.458-9.356-0.458-141.402 0-256.036 111.84-256.036 249.811 0 137.934 114.634 249.787 256.036 249.787 3.167 0 6.225-0.349 9.356-0.458 0 0 0.012 0 0.036 0 51.369-1.818 98.836-18.279 138.139-45.408 0.144-0.108 0.277-0.217 0.421-0.313 6.334-4.383 12.487-9.031 18.363-13.944 0.458-0.397 0.915-0.831 1.373-1.228 5.527-4.696 10.897-9.537 15.991-14.654 0.783-0.783 1.493-1.65 2.264-2.456 4.672-4.829 9.236-9.766 13.51-14.955 1.108-1.3 2.059-2.697 3.083-4.022 3.817-4.841 7.61-9.717 11.078-14.823 1.276-1.903 2.408-3.925 3.649-5.852 3.010-4.72 6.021-9.428 8.706-14.329 1.385-2.565 2.553-5.262 3.889-7.863 2.24-4.491 4.576-8.947 6.551-13.583 1.373-3.251 2.481-6.635 3.721-9.946 1.602-4.202 3.287-8.321 4.636-12.607 1.276-4.070 2.204-8.272 3.263-12.427 0.987-3.733 2.131-7.381 2.902-11.174 1.024-5.045 1.662-10.223 2.408-15.353 0.421-3.059 1.060-6.045 1.373-9.139 0.843-8.297 1.3-16.713 1.3-25.239s-0.458-16.942-1.3-25.239c-0.313-3.095-0.951-6.081-1.373-9.139-0.759-5.154-1.385-10.319-2.408-15.365-0.771-3.781-1.915-7.442-2.902-11.162-1.060-4.154-1.975-8.369-3.263-12.439-1.337-4.275-3.034-8.417-4.636-12.595-1.24-3.311-2.336-6.707-3.721-9.958-1.975-4.648-4.311-9.103-6.587-13.607-1.3-2.601-2.468-5.286-3.853-7.839-2.685-4.925-5.696-9.633-8.706-14.353-1.24-1.927-2.36-3.938-3.649-5.828-3.468-5.106-7.261-9.994-11.078-14.835-1.060-1.325-1.975-2.721-3.083-4.010-4.275-5.202-8.838-10.139-13.51-14.955-0.771-0.843-1.469-1.686-2.264-2.493z" />
<glyph unicode="&#xe95b;" glyph-name="map-2" d="M483.065 960c-184.775 0-334.558-145.123-334.558-324.13 0-21.988 2.324-43.469 6.623-64.229 7.381-81.605 266.332-639.193 331.090-635.605 60.014 3.287 288.331 457.79 305.586 575.169 16.545 38.388 25.744 80.485 25.744 124.677 0.012 178.995-149.771 324.118-334.486 324.118zM483.040 444.978c-96.199 0-174.215 78.967-174.215 176.346 0 97.391 78.016 176.358 174.215 176.358s174.227-78.967 174.227-176.358c0-97.379-78.028-176.346-174.227-176.346z" />
<glyph unicode="&#xe95c;" glyph-name="mobile-0" d="M743.737 902.779h-482.318c-12.656 0-22.903-10.259-22.903-22.903v-875.819c0-12.631 10.247-22.867 22.903-22.867h482.318c12.631 0 22.915 10.247 22.915 22.867v875.819c0.024 12.643-10.247 22.903-22.915 22.903zM457.778 842.295h164.702c5.479 0 9.922-5.298 9.922-11.837 0-6.551-4.443-11.849-9.922-11.849h-164.702c-5.539 0-9.958 5.334-9.958 11.849-0.012 6.538 4.419 11.837 9.958 11.837zM399.136 853.542c12.764 0 23.083-10.344 23.083-23.083s-10.356-23.083-23.083-23.083c-12.764 0-23.071 10.344-23.071 23.083 0.012 12.764 10.344 23.083 23.071 23.083zM555.963 40.519c0-16.075-13.956-29.080-31.308-29.080h-44.156c-17.303 0-31.32 13.005-31.32 29.080v13.655c0 16.027 14.016 29.032 31.32 29.032h44.156c17.316 0 31.308-13.005 31.308-29.032v-13.655zM720.87 128.060c0-12.656-10.259-22.903-22.939-22.903h-390.707c-12.643 0-22.903 10.259-22.903 22.903v638.627c0 12.631 10.259 22.903 22.903 22.903h390.695c12.692 0 22.939-10.271 22.939-22.903v-638.627zM630.788 374.764c-54.535 205.691-242.345 180.224-250.316 179.043l-6.635 43.494c2.288 0.373 234.675 33.174 299.469-211.266l-42.518-11.271zM523.764 352.090c-35.065 116.91-131.372 106.012-135.417 105.471l-5.973 43.59c47.311 6.587 146.604-13.39 183.535-136.405l-42.145-12.656zM456.85 337.857l-43.915 2.577c0.361 6.153-0.686 9.344-1.517 9.994-2.709 2.216-12.475 1.89-17.376 0.494l-11.752 42.386c3.504 0.963 34.908 8.995 56.751-8.682 8.959-7.201 19.338-21.181 17.809-46.769z" />
<glyph unicode="&#xe95d;" glyph-name="mobile-1" d="M753.177 908.8h-482.342c-12.656 0-22.903-10.259-22.903-22.903v-875.819c0-12.631 10.247-22.867 22.903-22.867h482.318c12.656 0 22.903 10.247 22.903 22.867v875.819c0.060 12.631-10.235 22.903-22.879 22.903zM467.194 848.316h164.702c5.491 0 9.922-5.298 9.922-11.837 0-6.551-4.431-11.849-9.922-11.849h-164.702c-5.539 0-9.958 5.334-9.958 11.849-0.012 6.526 4.419 11.837 9.958 11.837zM408.552 859.539c12.776 0 23.083-10.356 23.083-23.083 0-12.74-10.344-23.083-23.083-23.083-12.752 0-23.071 10.344-23.071 23.083 0.012 12.788 10.356 23.083 23.071 23.083zM565.392 46.54c0-16.075-13.98-29.080-31.308-29.080h-44.156c-17.303 0-31.332 13.005-31.332 29.080v13.655c0 16.027 14.028 29.032 31.332 29.032h44.156c17.303 0 31.308-13.005 31.308-29.032v-13.655zM730.31 134.081c0-12.656-10.259-22.903-22.939-22.903h-390.719c-12.656 0-22.915 10.259-22.915 22.903v638.627c0 12.631 10.259 22.903 22.915 22.903h390.683c12.692 0 22.939-10.271 22.939-22.903v-638.627h0.036z" />
</font>
</defs>
</svg>
